<?xml version="1.0" encoding="UTF-8" standalone="no"?>
<svg
   id="svg2"
   width="476.47311"
   height="488.67609"
   version="1.0"
   sodipodi:docname="lourinha-map.svg"
   inkscape:version="1.2.2 (732a01da63, 2022-12-09)"
   xmlns:inkscape="http://www.inkscape.org/namespaces/inkscape"
   xmlns:sodipodi="http://sodipodi.sourceforge.net/DTD/sodipodi-0.dtd"
   xmlns="http://www.w3.org/2000/svg"
   xmlns:svg="http://www.w3.org/2000/svg">
  <defs
     id="defs117" />
  <sodipodi:namedview
     id="namedview115"
     pagecolor="#ffffff"
     bordercolor="#000000"
     borderopacity="0.25"
     inkscape:showpageshadow="2"
     inkscape:pageopacity="0.0"
     inkscape:pagecheckerboard="0"
     inkscape:deskcolor="#d1d1d1"
     showgrid="false"
     inkscape:zoom="1.5859176"
     inkscape:cx="167.09569"
     inkscape:cy="220.37715"
     inkscape:window-width="1920"
     inkscape:window-height="991"
     inkscape:window-x="-9"
     inkscape:window-y="-9"
     inkscape:window-maximized="1"
     inkscape:current-layer="svg2" />
  <g
     id="layer3"
     style="display:inline;opacity:1"
     transform="matrix(0.92816983,0,0,0.98853646,126.01156,111.05563)">
    <rect
       style="color:#000000;display:inline;overflow:visible;visibility:visible;opacity:1;fill:#daf0fd;fill-opacity:1;fill-rule:nonzero;stroke:none;stroke-width:0.319977;stroke-linecap:butt;stroke-linejoin:miter;stroke-miterlimit:1;stroke-dasharray:none;stroke-dashoffset:0;stroke-opacity:1;marker:none;marker-start:none;marker-mid:none;marker-end:none;enable-background:accumulate"
       id="rect3133"
       width="509.1438"
       height="495.04327"
       x="-135.72075"
       y="-111.45208" />
  </g>
  <g
     id="layer2"
     style="display:inline;opacity:1"
     transform="translate(99.188522,106.65832)">
    <path
       style="display:inline;fill:#fdf8ed;fill-opacity:1;fill-rule:evenodd;stroke:#626262;stroke-width:1px;stroke-linecap:butt;stroke-linejoin:miter;stroke-opacity:1"
       d="m -97.793499,336.33449 c 0.567212,-1.01627 1.134424,-2.03254 1.701638,-3.04881 1.040938,-1.86506 2.006886,-3.55729 3.119665,-5.17591 0.917946,-1.33521 1.203692,-2.69071 1.914342,-4.25417 0.667192,-1.46785 0.806395,-3.40733 1.205326,-4.9632 0.377998,-1.47421 1.026054,-2.45497 1.701636,-3.68693 0.852757,-1.55506 1.196677,-3.45695 1.985243,-5.0341 0.806748,-1.61353 1.630797,-2.99153 2.552455,-4.39598 0.797339,-1.21502 2.232897,-2.66144 3.261469,-3.97055 1.119184,-1.42444 1.941861,-2.13028 2.906963,-3.89967 0.715128,-1.31108 2.038888,-2.52806 2.83606,-3.82874 0.832326,-1.35803 1.326556,-2.86055 1.843441,-4.32506 0.623378,-1.76629 0.674938,-2.80838 0.779916,-4.75049 0.07325,-1.35519 -0.132748,-2.65054 -0.283605,-3.97056 -0.149766,-1.31047 -0.624691,-2.85969 -0.850819,-4.25417 -0.267119,-1.64726 -0.212705,-3.35591 -0.212705,-5.0341 v -5.10501 c 0,-2.00385 0.67864,-3.70723 1.205326,-5.53041 0.378998,-1.31193 0.489836,-2.83164 0.709014,-4.18326 0.325803,-2.00914 0.902804,-3.53901 1.276228,-5.45953 0.321233,-1.65207 0.724517,-3.16803 0.992622,-4.82138 0.289307,-1.7841 0.625717,-3.47894 0.992621,-5.17591 0.32361,-1.49671 0.448868,-2.94891 0.850818,-4.39596 0.495201,-1.78276 1.028612,-3.37434 1.701637,-5.105 0.71257,-1.83237 1.10001,-3.81263 1.701637,-5.67223 0.544358,-1.68259 1.01232,-3.20398 1.630735,-4.82139 0.682948,-1.7862 1.224633,-3.41465 1.843439,-5.1759 0.594586,-1.69231 1.310983,-3.39444 1.91434,-4.9632 0.614353,-1.59733 1.125758,-3.03161 1.701638,-4.53779 0.772843,-2.0213 1.858583,-4.11449 2.623355,-5.81401 0.51028,-1.13397 0.540476,-3.15459 0.850819,-4.39598 0.407029,-1.62816 -0.285706,-3.92484 -0.42541,-5.60132 -0.129235,-1.55086 -0.315474,-3.15015 -0.354507,-4.75048 -0.03274,-1.34248 -1.176584,-3.12847 -1.772537,-4.25417 -0.707143,-1.33575 -0.922391,-2.90969 -1.276228,-4.32507 -0.33366,-1.33467 -0.607911,-2.65189 -0.850819,-3.97056 -0.311088,-1.68879 -0.212703,-3.48649 -0.212703,-5.24681 0,-2.18529 0.294793,-4.20135 0.638113,-6.31034 0.297862,-1.82976 0.479613,-3.6908 0.567211,-5.53043 0.08834,-1.85506 0.770443,-3.93576 1.063523,-5.74311 0.219596,-1.35422 0.539307,-2.66868 0.779918,-4.11237 0.33608,-2.01651 0.714245,-3.93292 0.92172,-5.95584 0.172648,-1.68335 0.435247,-3.06222 0.709015,-4.75048 0.261761,-1.61422 0.465127,-3.30698 0.709015,-4.89231 0.497415,-3.23325 0.768945,-4.24923 1.134424,-6.38124 0.296908,-1.73199 0.770699,-3.37012 1.063523,-5.1759 0.270803,-1.66999 0.501518,-2.90074 0.992621,-4.53777 0.414099,-1.38036 0.922081,-2.69562 1.276228,-3.97057 0.479043,-1.72458 1.107696,-3.41739 1.630735,-5.03409 0.501578,-1.55036 0.8401,-3.05567 1.347128,-4.53778 0.561532,-1.64142 0.518549,-3.752826 0.992622,-5.459509 0.498302,-1.793923 0.671636,-3.587992 0.92172,-5.388616 0.226501,-1.630843 0.537799,-3.130491 0.992621,-4.608674 0.368725,-1.198391 0.237827,-3.097401 0.425409,-4.25417 0.258345,-1.593165 0.543272,-3.137694 0.638113,-4.892297 0.124196,-2.297658 -0.141802,-4.719288 -0.141802,-6.948467 0,-2.380779 -0.36961,-4.860818 -0.567213,-7.232095 -0.154067,-1.848845 -0.167352,-3.485106 -0.0709,-5.317708 0.105851,-2.011187 -0.08631,-4.028942 -0.141802,-6.026737 -0.04528,-1.629977 -0.169739,-3.259535 -0.212705,-4.892291 -0.04914,-1.867215 0.222117,-3.700753 0.425409,-5.530415 0.144574,-1.301183 -0.212309,-2.793346 -0.283606,-4.112367 -0.100119,-1.852241 0,-3.744271 0,-5.601319 0,-1.592179 -0.24097,-2.934807 -0.496311,-4.466876 -0.244282,-1.465716 -0.961856,-2.93206 -1.488931,-4.32507 -0.625479,-1.653081 -1.361233,-3.074678 -2.197948,-4.608683 -0.735022,-1.347565 -2.26709,-2.468661 -3.261469,-3.616042 -0.917558,-1.058738 -1.954307,-2.239036 -2.836061,-3.33243 -0.889584,-1.1031049 -1.404388,-2.3508453 -2.056144,-3.6160429 -0.684608,-1.3289677 -1.051395,-2.3881494 -1.559833,-3.8287514 -0.818713,-2.3197269 0.397369,-3.06679426 1.347128,-4.7504861 0.544859,-0.9659047 2.158701,-2.1079542 2.977864,-2.8361127 1.000009,-0.8889122 1.792679,-2.1240902 3.119667,-3.2615286 1.763821,-1.5118734 1.819007,-1.5696409 4.25409,-1.7725689 l 1.134426,-2.6234044 c 0.601293,-1.390515 0.46041,-4.168598 0.709015,-5.743125 0.434888,-2.75434 0.406728,-5.525307 0.283606,-8.295627 -0.09714,-2.185777 -1.115113,-4.410598 -1.559834,-6.523056 -0.524301,-2.490477 -1.201651,-4.900004 -1.772538,-7.373891 -0.688982,-2.98564 -1.94509,-5.767605 -3.119667,-8.508335 -1.230914,-2.872185 -1.691165,-6.87287 -2.268848,-9.92639 -0.627173,-3.315117 -1.288739,-6.66903 -1.843439,-9.997294 -0.562575,-3.375508 -1.454578,-6.973322 -2.623357,-10.210002 -1.032323,-2.858794 -1.330627,-6.944202 -1.985243,-9.92639 -0.277777,-1.265451 -0.661098,-2.505403 -0.992621,-3.757848 l -3.215825,-13.142161 438.622872,-0.65865 -1.09472,488.9356 -473.551255,-1.98528 z"
       id="path2159"
       sodipodi:nodetypes="csssssssssssssssssssssssssssssssssssssssssssssssssssssssssssssssssssssssscsssssssssscccccc"
       inkscape:label="path2159" />
    <path
       style="fill:#80b1d3;fill-opacity:1;fill-rule:evenodd;stroke:#787878;stroke-width:1px;stroke-linecap:butt;stroke-linejoin:miter;stroke-opacity:1"
       d="m -4.7808318,337.45881 c 0.023634,0.92174 0.047267,1.84347 0.070901,2.76521 0.037414,1.45915 0.2836066,2.89146 0.2836066,4.32507 0,1.55992 -0.5895515,3.22632 -0.9217198,4.67959 -0.4073365,1.78212 -0.3989252,3.53824 -0.496311,5.3886 -0.072994,1.38693 -0.1418022,2.75535 -0.1418022,4.11236 0,1.28112 0.6582883,2.80441 0.9926209,4.04146 0.3761245,1.39168 0.921894,2.51383 1.2762275,3.97056 0.3158571,1.29855 1.0689661,2.69701 1.7016362,4.04146 0.4668211,0.99202 3.1366886,2.28555 4.112288,2.97792 1.4303932,1.01513 3.1773381,1.99958 4.4667957,2.7652 1.4544278,0.86359 2.8210938,1.59369 4.0413869,2.55251 1.413715,1.11079 2.709601,0.35777 4.041387,0.1418 1.380553,-0.22387 2.160487,-2.4634 2.83606,-3.40334 0.750389,-1.04403 2.551103,-1.57941 3.615978,-2.12708 1.253223,-0.64453 2.470013,-1.38013 3.68688,-2.05618 1.675908,-0.93107 3.799995,-1.20727 5.530318,-1.70166 1.947961,-0.55658 4.039287,-0.70655 5.884827,-1.20535 2.160234,-0.58386 4.388571,-0.85709 6.593836,-1.34715 1.785437,-0.39678 2.625538,-1.36553 3.757791,-2.4107 1.023191,-0.9445 1.630652,-2.43888 2.056135,-3.40334 0.515211,-1.16782 0.659726,-3.06002 0.992626,-4.32506 0.400361,-1.52141 1.270496,-2.27424 2.12704,-3.40333 0.680095,-0.8965 2.259123,-0.74206 3.261478,-0.99266 1.233723,-0.30842 3.787528,1.17309 4.821299,1.48897 0.595177,0.18187 2.215807,2.29724 2.765163,2.7652 1.384138,1.17912 4.53606,1.03194 6.381137,1.13445 2.227249,0.12375 2.965084,-0.92627 4.395881,-1.84346 1.140443,-0.73106 2.48744,-2.7436 3.61599,-3.82876 1.226757,-1.17959 2.029876,-2.95015 3.261469,-4.39597 1.197408,-1.40569 2.738551,-2.52621 4.112283,-3.75785 1.3564,-1.21611 2.478048,-2.3142 3.686893,-3.61605 1.578889,-1.70036 3.28665,-2.70968 5.104903,-4.11235 1.348192,-1.04005 2.611354,-2.42823 3.68687,-3.54513 1.330759,-1.38199 2.605972,-2.17993 3.970488,-3.82876 1.19111,-1.43927 2.55814,-2.82686 4.04138,-4.11237 0.99167,-0.85945 2.34155,-2.86684 3.47419,-4.04145 0.90864,-0.94232 2.92151,-1.48143 3.89958,-1.98528 1.35467,-0.69788 3.07049,-1.02597 4.46679,-1.55987 1.34617,-0.51471 1.2288,-2.59084 1.41803,-3.75785 0.22562,-1.39131 -0.26914,-2.55706 -0.49631,-3.75784 -0.19375,-1.02407 -2.98997,-2.42192 -3.75777,-2.97792 -1.16331,-0.8424 -2.07933,-1.62774 -3.11968,-2.5525 -1.06279,-0.94473 -2.41439,-1.68196 -3.47416,-2.5525 -1.13377,-0.93132 -1.87382,-2.36775 -2.62337,-3.47423 -0.91467,-1.35027 -1.84906,-2.13833 -2.62335,-3.68696 -0.58993,-1.1799 -0.39229,-2.4685 -0.3545,-3.82874 0.0392,-1.41251 1.00407,-3.01332 1.48892,-4.11237 0.43409,-0.98395 0.39746,-2.62763 0.70903,-3.68694 0.48618,-1.65309 -0.28988,-2.77161 -0.85082,-4.25417 -0.4233,-1.11871 -1.88087,-2.50439 -2.69426,-3.47423 -0.729516,-0.86981 -1.134694,-2.35598 -1.701644,-3.33244 -0.739922,-1.27432 -0.354511,-3.77373 -0.354511,-5.17589 0,-1.47928 -0.103154,-2.99834 -0.141793,-4.46688 -0.03851,-1.463 -0.400644,-2.52044 -0.779924,-3.89965 -0.610738,-2.22087 -2.570828,-0.35057 -3.119664,-0.42541 -1.345255,-0.18345 -2.397375,1.8229 -3.048762,2.55249 -1.03309,1.15707 -1.537871,2.00614 -2.694261,3.11972 -1.299725,1.25162 -2.300229,1.2158 -3.757784,1.70167 -1.222323,0.40745 -2.613632,0.43376 -3.899588,0.85083 -0.553147,0.17941 -0.212695,3.79612 -0.212695,4.39597 0,1.64958 -0.500169,3.61626 -0.63812,5.31771 -0.142006,1.75151 -1.701307,2.73752 -2.836055,3.61605 -1.280807,0.9916 -2.314222,1.66772 -3.757795,2.5525 -1.290847,0.79119 -1.100765,3.03568 -1.205315,4.32506 -0.143122,1.7651 -0.141805,3.5343 -0.141805,5.31772 0,1.31452 -0.286869,2.72529 -0.425413,4.04146 -0.185782,1.76498 -0.35527,2.84894 -0.992608,4.46687 -0.764034,1.93947 -2.65617,0.98484 -3.82869,0.85083 -0.439629,-0.0502 -2.531266,-3.23296 -2.906962,-3.68694 -0.935227,-1.13008 -1.99597,-1.93219 -3.048762,-2.90701 -0.978097,-0.90567 -1.943456,-1.27145 -2.977868,-2.05619 -0.891391,-0.67622 -3.945967,-0.25665 -5.104908,-0.28361 -2.498355,-0.0581 -2.590172,0.70722 -3.970482,2.19799 -0.886554,0.9575 -1.422887,3.1167 -2.056148,4.18327 -0.959371,1.6158 -1.740552,2.63558 -2.836057,3.89964 -1.009402,1.16471 -1.879339,2.27614 -2.977868,3.33244 -1.050855,1.01045 -2.29728,2.01552 -3.403276,2.83611 -1.090764,0.80929 -2.473685,1.34826 -3.545074,2.19799 -1.486773,1.17918 -2.218455,2.21763 -3.26147,3.54514 -1.031251,1.31253 -1.801761,2.71562 -2.623356,4.11237 -0.906725,1.54144 -1.43469,2.79851 -2.197947,4.32506 -0.896966,1.79396 -1.488507,3.69935 -2.410652,5.60131 -1.551469,3.19997 -1.383651,1.19001 -3.26147,0.92175 -0.749244,-0.10704 -2.558336,-1.56779 -3.26147,-1.98528 -1.072217,-0.63664 -3.315203,-0.5981 -4.466796,-0.77994 -1.761509,-0.27813 -3.2838371,2.15117 -4.1831896,3.11972 -1.2979326,1.3978 -2.330782,2.71817 -3.6868792,3.75787 -1.2159199,0.93221 -2.7728761,1.70385 -4.11228798,2.48158 -1.82276522,1.0584 -3.02422882,1.23018 -5.24671202,1.34716 z"
       id="path3135"
       inkscape:label="Vimeiro" />
    <path
       style="color:#000000;display:inline;overflow:visible;visibility:visible;opacity:1;fill:#fb8072;fill-opacity:1;fill-rule:evenodd;stroke:#787878;stroke-width:1px;stroke-linecap:butt;stroke-linejoin:miter;stroke-miterlimit:4;stroke-dasharray:none;stroke-dashoffset:0;stroke-opacity:1;marker:none;marker-start:none;marker-mid:none;marker-end:none;enable-background:accumulate"
       d="m 21.872843,230.69225 c -0.188447,0.0115 -0.381237,0.043 -0.578637,0.11573 -1.724209,0.63524 -2.898129,1.4179 -4.513371,2.27601 -1.772488,0.94165 -3.618675,1.76898 -5.554918,2.6232 -1.9465782,0.8588 -3.9577117,2.27962 -6.1335553,2.6232 -1.2757204,0.20143 -3.7237117,0.83932 -5.0534324,0.15431 -1.4353962,-0.73946 -2.4678827,-1.10949 -3.2017937,-2.6232 -0.6788365,-1.40015 -1.2381822,-3.38355 -2.8931865,-3.81908 -2.1586814,-0.56808 -3.3776667,-0.92657 -5.6706451,0.11573 -1.383712,0.62897 -2.69977,1.44756 -3.896158,2.43032 -1.185274,0.97364 -2.301407,1.74802 -2.970338,3.54904 -0.447077,1.20369 -0.778142,2.37258 -0.925819,3.66477 -0.148645,1.30067 -0.159177,2.63057 -0.578638,3.81907 -0.53817,1.52485 -0.737554,2.09379 -1.774487,3.35616 -0.706354,0.85991 -1.154753,2.01225 -2.275975,2.89323 -1.318437,1.03594 -2.678313,1.67812 -4.166187,2.54605 -1.068682,0.62342 -4.953447,2.00841 -5.400615,3.4719 -0.60373,1.97587 -1.101288,2.45286 -0.07715,4.62917 0.292059,0.62065 0.944098,3.17524 1.774488,3.31758 1.450925,0.24875 2.984936,0.84869 4.474795,0.84868 1.292528,0 2.848593,0.21319 4.127612,0 1.647651,-0.2746 3.288572,-0.66203 5.014857,-0.84868 1.487427,-0.1608 3.215259,-0.17652 4.629099,-0.54007 1.21202,-0.31168 2.234384,-0.62748 3.394671,-0.92584 1.048512,-0.26963 3.4007724,-1.2185 4.3976436,-1.00299 1.2483915,0.26994 2.9276258,0.1486 3.7418555,1.27304 0.8728968,1.20545 1.59732101,2.04751 2.08309328,3.54904 0.48876738,1.51074 1.38753472,3.25361 0.96439625,4.89921 -0.34650622,1.34753 -0.30765015,2.28402 -1.42730538,3.31758 -0.80011175,0.73859 -1.83609365,2.19851 -2.46885315,2.70036 -1.051728,0.83414 -2.4408317,1.88274 -3.3946714,2.70035 -1.19196,1.0217 -2.4768647,2.01904 -3.2017937,3.20185 -0.679934,1.10938 -1.618501,2.07567 -2.275973,3.31758 -0.706898,1.33526 -1.44359,2.59726 -1.774487,4.12769 -0.23665,1.09452 -0.99794,2.57788 -0.964397,3.81907 0.03084,1.14124 -0.01374,2.27435 0.115729,3.47189 0.129164,1.19479 0.274987,2.3387 0.308606,3.54903 0.03144,1.13191 0.175742,2.3616 0.115727,3.47189 -0.09063,1.67669 0.214146,3.67418 -0.115727,5.32356 -0.238583,1.19293 -0.367381,1.88922 -0.501486,3.16328 -0.150907,1.43363 -0.506764,2.73942 -0.694365,4.12768 -0.122503,0.90655 -0.918533,2.82225 -0.154303,3.81908 0.95995,1.25214 1.636517,2.59037 2.468853,3.81907 0.560527,0.82747 4.1795173,6.23045 4.7448253,5.90221 0.7894725,0.81141 4.1248704,3.04602 5.130584,4.43629 0.0045,0.006 0.034174,-0.006 0.038576,0 1.3410736,-0.14872 2.34957123,-0.4484 3.70327857,-1.23444 1.33941183,-0.77773 2.91169103,-1.57525 4.12761303,-2.50747 1.3560972,-1.0397 2.3667737,-2.34411 3.6647029,-3.74193 0.8993525,-0.96855 2.4432512,-3.40286 4.2047642,-3.12469 1.151592,0.18183 3.364006,0.13487 4.436219,0.77153 0.703134,0.41749 2.529697,1.89893 3.278944,2.00597 1.87782,0.26826 1.727479,2.27413 3.278946,-0.92583 0.922145,-1.90196 1.49473,-3.79964 2.3917,-5.5936 0.763257,-1.52654 1.292094,-2.77913 2.198822,-4.32056 0.821594,-1.39675 1.591904,-2.81515 2.623156,-4.12769 1.043015,-1.3275 1.792165,-2.36987 3.278944,-3.54904 1.071389,-0.84974 2.419636,-1.38957 3.5104,-2.19886 1.105996,-0.8206 2.382394,-1.80563 3.433248,-2.81609 1.098529,-1.05629 1.960936,-2.19144 2.970338,-3.35615 1.095505,-1.26407 1.856663,-2.28042 2.816035,-3.89623 0.633261,-1.06657 1.196542,-3.20878 2.083095,-4.16627 1.38031,-1.49077 1.474953,-2.25695 3.973309,-2.19886 1.158941,0.027 4.200617,-0.40618 5.092008,0.27004 1.034413,0.78474 1.99224,1.13889 2.970338,2.04456 1.052793,0.97483 2.112264,1.80172 3.04749,2.93181 0.375697,0.45398 2.492133,3.61454 2.931763,3.66477 1.172518,0.13401 3.054984,1.09079 3.819006,-0.84868 0.637349,-1.61794 0.81719,-2.70992 1.002972,-4.47488 0.138543,-1.31616 0.42433,-2.69742 0.42433,-4.01195 0,-1.78342 -0.02741,-3.55848 0.115728,-5.32357 0.10455,-1.28938 -0.05641,-3.52937 1.234429,-4.32056 1.443562,-0.8848 2.461063,-1.55445 3.741859,-2.54606 1.134737,-0.87853 2.674037,-1.87466 2.816031,-3.62618 0.137941,-1.70146 0.655787,-3.674 0.655787,-5.32357 0,-0.59985 -0.360251,-4.2183 0.192885,-4.39772 1.285944,-0.41707 2.712386,-0.44123 3.934732,-0.84868 1.457543,-0.48586 2.442122,-0.44575 3.741847,-1.69737 1.156391,-1.11358 1.667224,-1.96762 2.700315,-3.12469 0.443795,-0.49708 1.069831,-1.57422 1.851632,-2.16029 -0.01698,-0.36933 -0.03072,-0.76282 -0.07715,-1.11872 -0.249224,-1.91066 -0.449066,-3.71024 -1.002972,-5.5936 -0.229681,-0.78091 -0.85153,-3.97294 -1.697343,-4.16626 -1.6163,-0.36944 -2.77833,-1.17709 -4.629091,-0.1543 -1.04514,0.5776 -2.204691,0.9869 -3.086072,2.04455 -0.95417,1.14504 -2.119573,2.20691 -2.93176,3.27901 -0.953299,1.25838 -2.356144,3.57572 -4.47479,2.97039 -1.554064,-0.44402 -4.002117,-0.86265 -4.436218,-2.81609 -0.397852,-1.79038 -0.501486,-3.27655 -0.501486,-5.20783 0,-1.44264 0.2159,-3.00183 -0.07716,-4.32057 -0.355673,-1.60058 -0.931255,-3.2373 -1.273002,-4.86064 -0.661046,-3.14003 -1.451686,-4.43726 -4.744826,-2.93181 -1.612864,0.73732 -3.030615,2.00597 -4.976281,2.00598 -1.915003,0 -2.636672,0.0615 -4.050461,-1.15729 -0.44727,-0.3856 -4.503447,-3.5513 -4.513371,-3.47189 -0.118172,0.94536 -0.385758,1.90195 -0.385758,2.85465 0,1.20536 0,2.38228 0,3.58763 0,1.02042 0.492943,3.69806 0,4.62918 -0.667491,1.26085 -0.184868,3.04283 -2.314549,2.04455 -2.144161,-1.00509 -2.837612,-1.54157 -3.896158,-3.47188 -0.495326,-0.90328 -1.772241,-3.60302 -2.777459,-3.97339 -1.591533,-0.58636 -2.554065,-1.17266 -4.551947,-0.84867 -1.056978,0.17141 -2.70542,0.86531 -3.896157,0.50149 -2.093247,-0.63963 -2.338736,-0.83622 -4.089038,-2.35318 -1.357351,-1.17639 -2.237314,-2.24924 -3.394672,-3.31758 -0.900682,-0.8314 -2.036966,-2.12542 -3.356096,-2.04454 z"
       id="path3137"
       inkscape:label="Santa Barbara" />
    <path
       style="fill:#bebada;fill-opacity:1;fill-rule:evenodd;stroke:#787878;stroke-width:1px;stroke-linecap:butt;stroke-linejoin:miter;stroke-opacity:1"
       d="m -62.878233,223.2084 c -0.343402,1.0075 -0.694783,2.01429 -1.041547,3.08612 -0.601627,1.8596 -0.984766,3.83837 -1.697337,5.67075 -0.673025,1.73066 -1.202134,3.30934 -1.697335,5.0921 -0.401951,1.44704 -0.525059,2.90102 -0.848668,4.39771 -0.366904,1.69697 -0.713665,3.38516 -1.002972,5.16927 -0.268105,1.65334 -0.643163,3.16998 -0.964395,4.82206 -0.373426,1.92051 -0.9472,3.46872 -1.273003,5.47786 -0.219178,1.35162 -0.353941,2.85434 -0.73294,4.16627 -0.526687,1.82318 -1.19585,3.55117 -1.19585,5.55501 0,1.70168 0,3.39043 0,5.0921 0,1.6782 -0.03566,3.40628 0.231455,5.05352 0.226128,1.39448 0.698902,2.93295 0.848667,4.24341 0.150857,1.32003 0.343283,2.61821 0.270032,3.97339 -0.104979,1.94212 -0.148139,2.97862 -0.771518,4.74491 -0.516883,1.46452 -1.019313,2.96254 -1.851638,4.32057 -0.797173,1.30067 -2.139484,2.50799 -2.854611,3.81907 -0.965102,1.76939 -1.774004,2.47179 -2.893187,3.89623 -1.028573,1.30912 -2.481605,2.75836 -3.278945,3.97338 -0.921657,1.40446 -1.739255,2.78421 -2.546003,4.39772 -0.788566,1.57716 -1.11461,3.49847 -1.967368,5.05352 -0.06182,0.11275 -0.131703,0.19952 -0.192878,0.30862 0.940806,0.39864 1.87105,0.77627 2.816035,1.23445 0.855825,0.41495 2.249621,1.42211 2.970338,1.50448 1.591095,0.18184 3.274001,0.49509 4.937705,0.34719 1.836305,-0.16323 3.912637,0.006 5.747797,-0.30861 1.339192,-0.22959 2.631952,-0.50555 3.973309,-0.84868 1.5944,-0.40788 3.228796,-1.04865 4.821978,-1.46591 2.61276,-0.68432 4.558419,-1.25698 6.750768,-2.35316 1.625594,-0.81282 3.222555,-1.50059 5.092008,-1.69737 2.283821,-0.24042 3.953065,-0.53585 6.172132,-0.65581 1.834253,-0.0991 3.858772,0.0637 5.670645,-0.27003 1.798137,-0.33124 3.699432,-1.36958 5.477767,-1.54307 1.099769,-0.10729 3.477076,-0.86224 4.51337,-0.0771 1.061302,0.80403 2.874965,1.53278 3.548976,2.73892 0.761158,1.3621 1.360448,2.4541 2.275973,3.51047 0.766244,0.88415 1.332099,1.84459 2.044519,2.81609 0.592088,0.8074 1.364163,2.30367 2.430276,2.77751 0.889579,0.39537 2.251021,1.29131 3.240369,1.50448 -0.331528,-1.04646 0.27981,-2.57211 0.385758,-3.35616 0.187601,-1.38826 0.543458,-2.69405 0.694365,-4.12768 0.134105,-1.27406 0.262903,-1.97035 0.501486,-3.16328 0.329873,-1.64938 0.0251,-3.64687 0.115727,-5.32356 0.06001,-1.11029 -0.08428,-2.33998 -0.115727,-3.47189 -0.03362,-1.21033 -0.179442,-2.35424 -0.308606,-3.54903 -0.129466,-1.19754 -0.08488,-2.33065 -0.115729,-3.47189 -0.03354,-1.24119 0.727747,-2.72455 0.964397,-3.81907 0.330897,-1.53043 1.067589,-2.79243 1.774487,-4.12769 0.657472,-1.24191 1.596039,-2.2082 2.275973,-3.31758 0.724929,-1.18281 2.0098337,-2.18015 3.2017937,-3.20185 0.9538397,-0.81761 2.3429434,-1.86621 3.3946714,-2.70035 0.6327595,-0.50185 1.6687414,-1.96177 2.46885315,-2.70036 1.11965523,-1.03356 1.08079916,-1.97005 1.42730538,-3.31758 0.42313847,-1.6456 -0.47562887,-3.38847 -0.96439625,-4.89921 -0.48577227,-1.50153 -1.21019648,-2.34359 -2.08309328,-3.54904 -0.8142297,-1.12444 -2.493464,-1.0031 -3.7418555,-1.27304 -0.9968712,-0.21551 -3.3491316,0.73336 -4.3976436,1.00299 -1.160287,0.29836 -2.182651,0.61416 -3.394671,0.92584 -1.41384,0.36355 -3.141672,0.37927 -4.629099,0.54007 -1.726285,0.18665 -3.367206,0.57408 -5.014857,0.84868 -1.279019,0.21319 -2.835084,0 -4.127612,0 -1.489859,10e-6 -3.02387,-0.59993 -4.474795,-0.84868 -0.83039,-0.14234 -1.482429,-2.69693 -1.774488,-3.31758 -1.024136,-2.17631 -0.526578,-2.6533 0.07715,-4.62917 0.447168,-1.46349 4.331933,-2.84848 5.400615,-3.4719 1.487874,-0.86793 2.84775,-1.51011 4.166187,-2.54605 1.121222,-0.88098 1.569621,-2.03332 2.275975,-2.89323 1.036933,-1.26237 1.236317,-1.83131 1.774487,-3.35616 0.419461,-1.1885 0.429993,-2.5184 0.578638,-3.81907 0.147677,-1.29219 0.478742,-2.46108 0.925819,-3.66477 0.342619,-0.92247 0.785124,-1.57318 1.311578,-2.12171 -0.295674,-0.19595 -0.587329,-0.3758 -0.964395,-0.50149 -1.815789,-0.60528 -3.902345,-1.14187 -5.902102,-1.69737 -1.639406,-0.4554 -3.051921,-0.64704 -4.667673,-1.15729 -1.87979,-0.59364 -3.598116,-1.28974 -5.246312,-1.77453 -1.493331,-0.43922 -2.733181,-1.01244 -4.24334,-1.54305 -1.740031,-0.61138 -3.642414,-1.33736 -5.554918,-1.77453 -1.808325,-0.41333 -3.696446,-0.65177 -5.516342,-1.15729 -1.464327,-0.40676 -2.909886,-1.21781 -4.24334,-1.54306 -1.563354,-0.3813 -3.519047,-0.37469 -5.130584,-0.84869 -1.182285,-0.34773 -2.624958,-0.689 -4.127613,-0.8101 z"
       id="path3142"
       inkscape:label="Ribamar" />
    <path
       style="fill:#b3de69;fill-opacity:1;fill-rule:evenodd;stroke:#787878;stroke-width:1px;stroke-linecap:butt;stroke-linejoin:miter;stroke-opacity:1"
       d="m 207.307,129.583 c 0.909,0.945 1.984,1.495 2.353,2.971 0.32,1.281 0.732,2.636 0.656,4.05 -0.077,1.412 -0.36,2.899 -0.579,4.398 -0.266,1.821 -0.568,3.458 -1.003,5.246 -0.503,2.069 -0.919,3.734 -1.466,5.594 -0.474,1.612 -0.811,3.233 -1.157,5.015 -0.437,2.245 -0.938,4.341 -1.196,6.596 -0.223,1.954 -0.559,3.835 -0.733,5.748 -0.141,1.551 -0.816,4.266 -0.193,5.825 0.484,1.211 0.902,2.273 1.196,3.742 0.279,1.393 0.529,2.832 0.926,4.205 0.33,1.141 0.794,2.505 1.196,3.742 0.559,1.72 0.905,3.451 1.581,5.092 0.563,1.366 1.185,2.88 1.273,4.475 0.066,1.176 0.349,2.519 0.193,3.703 -0.143,1.091 -0.178,2.207 -0.463,3.318 -0.445,1.736 -0.681,3.187 -1.658,4.629 -0.891,1.315 -1.951,2.403 -2.122,4.244 -0.178,1.908 -0.148,4.056 -0.579,5.94 -0.363,1.592 -0.91,3.267 -1.35,4.977 -0.434,1.69 -0.726,3.586 -0.887,5.516 -0.115,1.379 -0.305,2.291 0.039,3.703 0.321,1.323 0.83,2.057 1.234,3.202 0.32,0.906 1.501,2.849 1.196,3.819 -0.325,1.032 -0.772,2.092 -0.772,3.202 0,1.69 -0.077,3.376 0.27,4.938 0.264,1.186 0.759,2.326 1.003,3.395 0.36,1.576 0.862,3.005 1.35,4.282 0.587,1.533 1.133,2.789 1.042,4.513 -0.081,1.547 0.007,3.127 -0.27,4.629 -0.271,1.472 -0.801,2.65 -1.08,4.167 -0.227,1.232 -0.425,2.371 -0.425,3.78 0,1.235 -0.127,2.715 0.078,4.012 0.219,1.387 0.221,2.881 0.501,4.282 0.299,1.496 0.262,2.88 1.273,4.166 0.987,1.257 1.748,2.405 2.623,3.781 0.451,0.709 3.587,3.467 3.472,4.59 -0.121,1.185 0.3,2.445 -0.617,3.472 -1.481,1.659 -1.731,1.696 -4.051,2.469 -1.789,0.597 -3.331,1.003 -5.323,1.003 -2.078,0 -4.039,0.087 -6.095,0.309 -1.876,0.203 -3.497,0.414 -5.246,0.964 -1.576,0.496 -3.198,0.656 -4.745,1.158 -1.755,0.569 -2.723,1.369 -4.243,2.198 -1.661,0.906 -3.222,1.995 -5.324,2.045 -1.606,0.038 -2.827,-0.11 -4.241,-0.424 -0.157,0.154 -0.382,0.296 -0.697,0.424 -1.454,0.589 -2.964,1.18 -4.552,1.543 -2.111,0.483 -3.962,0.926 -6.21,0.926 -2.031,0 -4.081,-0.012 -6.057,-0.116 -2.51,-0.132 -4.881,-0.158 -7.368,0.039 -2.448,0.193 -5.416,0.353 -7.522,1.581 -1.564,0.913 -3.263,1.482 -4.822,2.354 -1.646,0.919 -3.415,1.755 -5.246,2.816 -1.374,0.795 -3.264,2.176 -4.822,2.43 -2.23,0.363 -4.168,0.554 -6.442,-0.077 -1.1,-0.306 -2.602,-0.66 -3.819,-1.196 0.575,-0.851 0.549,-2.234 0.694,-3.125 0.226,-1.391 -0.274,-2.58 -0.502,-3.78 -0.193,-1.024 -2.974,-2.415 -3.741,-2.971 -1.164,-0.842 -2.085,-1.621 -3.125,-2.546 -1.063,-0.944 -2.412,-1.675 -3.472,-2.546 -1.134,-0.931 -1.873,-2.365 -2.623,-3.472 -0.915,-1.35 -1.849,-2.154 -2.623,-3.703 -0.59,-1.18 -0.385,-2.459 -0.347,-3.819 0.039,-1.413 0.981,-3.029 1.466,-4.128 0.434,-0.984 0.421,-2.605 0.732,-3.665 0.487,-1.653 -0.287,-2.799 -0.848,-4.282 -0.424,-1.118 -1.887,-2.502 -2.701,-3.471 -0.729,-0.87 -1.13,-2.342 -1.697,-3.318 -0.74,-1.274 -0.347,-3.767 -0.347,-5.169 0,-1.48 -0.116,-3.007 -0.154,-4.475 -0.039,-1.463 -0.393,-2.517 -0.772,-3.896 -0.611,-2.221 -2.576,-0.35 -3.124,-0.425 -0.426,-0.058 -0.833,0.117 -1.196,0.386 -0.017,-0.369 -0.031,-0.763 -0.077,-1.119 -0.25,-1.91 -0.45,-3.71 -1.003,-5.593 -0.23,-0.781 -0.852,-3.973 -1.698,-4.167 -0.764,-0.174 -1.439,-0.447 -2.121,-0.578 0.226,-0.543 0.479,-1.068 0.694,-1.62 0.479,-1.232 1.277,-2.899 1.35,-4.475 0.061,-1.304 0.584,-3.513 0.232,-4.745 -0.375,-1.31 -0.613,-3.042 -1.505,-4.128 -0.993,-1.209 -1.927,-2.769 -2.97,-3.896 -0.945,-1.02 -1.966,-2.763 -3.202,-3.549 -2.356,-1.499 -1.786,-2.294 -3.318,-4.668 -1.135,-1.76 -2.722,-3.711 -0.308,-5.401 1.237,-0.866 2.171,-2.015 4.05,-1.388 1.263,0.421 2.833,1.228 4.051,1.388 0.853,0.113 3.51,0.981 4.32,0.348 1.094,-0.855 2.358,-1.751 3.626,-2.662 1.356,-0.975 2.896,-1.904 4.167,-3.125 1.168,-1.124 2.24,-1.946 3.356,-3.202 0.351,-0.395 0.713,-0.898 1.105,-1.402 -0.913,-0.92 -1.925,-1.943 -2.803,-3.15 -0.747,-1.027 -2.933,-3.345 -1.697,-5.169 0.946,-1.397 1.972,-2.027 3.047,-3.318 0.899,-1.078 1.707,-2.669 2.701,-3.626 0.826,-0.795 2.251,-2.654 3.472,-3.549 1.02,-0.748 2.218,-1.88 3.549,-2.546 1.706,-0.853 2.554,-1.153 2.893,-3.24 0.227,-1.403 0.185,-4.121 1.774,-4.822 1.072,-0.473 2.934,-0.799 3.974,-1.659 1.306,-1.081 2.173,-1.687 3.201,-2.893 0.891,-1.046 2.429,-2.294 2.778,-3.549 0.428,-1.542 0.745,-3.821 1.62,-5.093 0.862,-1.254 1.539,-2.512 2.469,-3.78 0.884,-1.206 1.992,-3.115 3.356,-3.742 1.413,-0.649 2.563,-1.54 4.32,-1.003 1.434,0.438 2.762,1.073 4.089,1.505 1.673,0.543 3.588,1.479 5.324,1.62 1.169,0.095 3.006,0.665 4.128,0.578 1.653,-0.127 3.177,-0.501 5.092,-0.501 1.741,0 2.918,-0.603 4.474,-0.772 1.359,-0.146 2.609,-0.021 3.819,-0.733 1.164,-0.684 3.013,-2.053 4.282,-2.198 0.887,-0.102 3.092,-0.765 3.819,0.308 0.656,0.968 1.787,3.466 3.472,2.623 1.419,-0.709 2.13,-0.749 2.893,-2.276 0.863,-1.725 1.142,-3.567 1.929,-5.246 0.878,-1.872 2.224,-3.534 2.778,-5.324 0.581,-1.877 0.995,-4.199 2.044,-5.747 1.044,-1.541 1.011,-2.119 3.048,-2.778 1.268,-0.411 2.554,-0.612 3.741,-1.35 1.532,-0.952 2.78,-1.876 4.475,-2.623 1.087,-0.48 3.377,-2.165 4.822,-2.045 1.349,0.112 3.64,0.012 4.668,1.08 z"
       id="path3172"
       inkscape:label="Miragaia e Marteleira" />
    <path
       style="fill:#fccde5;fill-opacity:1;fill-rule:evenodd;stroke:#787878;stroke-width:1px;stroke-linecap:butt;stroke-linejoin:miter;stroke-opacity:1"
       d="m 199.90025,71.178368 c -1.11154,-0.03186 -1.97677,0.128427 -3.24036,0.462918 -1.57758,0.417588 -3.87066,1.94033 -5.82495,2.70036 -2.09031,0.81291 -3.01548,2.251939 -4.12762,3.819072 -0.93721,1.320631 -2.31743,2.157573 -3.39467,3.54904 -1.502,1.940118 -1.35016,3.578097 -1.35016,5.51644 -1e-5,1.285196 2.39052,3.295714 3.12465,3.973384 1.31812,1.216773 2.15854,2.171722 3.39467,3.201852 1.18697,0.989144 2.43646,2.270722 3.3561,3.124694 1.7129,1.590574 1.14894,1.881723 0.42433,3.934802 -0.39574,1.12129 -2.3079,2.82413 -2.93176,3.97338 -1.02168,1.8821 0.374,2.33429 1.4273,3.47189 0.70424,0.76059 2.642,1.53688 3.54898,2.35317 1.0057,0.90515 0.002,4.68064 -0.1543,5.59359 -0.28863,1.68362 0.77845,2.53797 1.77448,3.89622 0.98037,1.33688 2.56234,2.10937 3.54898,3.4719 1.04311,1.44048 2.06249,2.14581 2.89318,3.97337 0.0459,0.10107 0.0753,0.2074 0.11573,0.30862 0.0498,1.2e-4 0.10634,-0.004 0.1543,0 1.34845,0.11236 3.63937,0.0123 4.66768,1.08013 0.90949,0.9445 1.98433,1.49522 2.35313,2.9704 0.32033,1.28135 0.73223,2.63627 0.65578,4.05054 -0.0763,1.41141 -0.35934,2.89916 -0.57864,4.39772 -0.26648,1.82095 -0.56812,3.45863 -1.00297,5.24641 -0.50325,2.06893 -0.91884,3.7336 -1.46587,5.59358 -0.47425,1.6125 -0.81081,3.23302 -1.15728,5.01495 -0.43661,2.24546 -0.93813,4.34143 -1.19585,6.59659 -0.22327,1.95361 -0.55905,3.83498 -0.73295,5.7479 -0.14096,1.55078 -0.81649,4.26597 -0.19287,5.82504 0.48414,1.21041 0.90193,2.27238 1.19585,3.74193 0.27857,1.39291 0.52844,2.83208 0.92582,4.20484 0.33017,1.14058 0.79384,2.50495 1.19585,3.74192 0.55882,1.71948 0.90567,3.45053 1.58161,5.0921 0.5625,1.36612 1.18441,2.88036 1.273,4.47488 0.0654,1.17642 0.34866,2.51949 0.19288,3.70334 -0.14347,1.0904 -0.17808,2.20668 -0.46292,3.31758 -0.44503,1.73562 -0.68161,3.18674 -1.65876,4.62918 -0.89077,1.31497 -1.95047,2.40307 -2.12166,4.24341 -0.17753,1.90846 -0.14794,4.05655 -0.57864,5.94079 -0.3638,1.59166 -0.91063,3.26705 -1.35016,4.97637 -0.43452,1.68987 -0.72638,3.58603 -0.88724,5.51645 -0.1149,1.37891 -0.30505,2.29063 0.0386,3.70334 0.32179,1.32294 0.83026,2.05667 1.23442,3.20185 0.29782,0.84378 1.33875,2.56838 1.23443,3.58761 1.54735,0.29929 3.1295,0.39636 4.66768,0.77154 2.31388,0.56437 3.56841,1.44507 5.9021,1.69735 2.65901,0.28749 4.73717,0.84869 7.48371,0.84869 2.39794,1e-5 5.02938,0.52452 7.40656,0.84868 2.50014,0.34093 5.07444,0.30239 7.56085,0.57865 2.30624,0.25626 5.17471,-0.22363 7.52229,-0.34719 3.29913,-0.17364 6.80834,0.0829 10.06829,0.34719 2.96281,0.24025 5.79995,0.91841 8.71814,1.58164 2.34455,0.53287 4.44351,0.85821 6.75076,1.19588 2.43137,0.35581 4.81538,0.38635 7.29083,0.50149 2.67605,0.12448 5.00405,0.57284 7.71517,0.50149 2.25427,-0.0593 4.50224,-0.11531 6.75076,0 2.08803,0.10707 4.27578,0.32281 6.51932,0.77153 1.83218,0.36646 4.115,1.52041 5.67065,2.27602 1.29107,0.6271 1.81223,2.54649 2.46884,3.89623 0.70123,1.44143 3.35797,3.31073 4.28192,4.16625 1.11461,1.03207 1.33351,3.19577 1.62019,4.62918 0.21402,1.07004 -0.0928,2.75183 0,3.89623 0.0504,0.62161 2.92695,2.97163 3.31751,3.39474 0.86429,0.93635 6.96332,0.85931 8.29381,0.92583 1.93792,0.0969 3.85118,0.42042 5.67065,0.92584 2.16353,0.60098 3.73486,2.01263 5.32346,3.31758 1.69748,1.39437 3.20075,2.7033 5.2463,3.81907 2.48615,1.3561 3.64331,3.15949 4.74483,5.13068 1.35869,2.43138 2.87939,2.87538 3.78043,5.78648 0.52458,1.69485 2.31038,4.18359 3.12465,5.55502 0.88275,1.48678 1.66033,3.34778 2.546,5.01495 0.8196,1.54282 1.95274,2.50508 3.31752,3.62618 1.76978,1.45379 2.80332,1.87742 5.05343,2.39175 1.45182,0.33185 3.34348,-1.05456 4.47479,-1.62022 0.58223,-0.29112 1.79538,-3.63419 2.31456,-4.5906 1.05223,-1.9384 1.84799,-2.96815 2.27597,-5.16925 0.33229,-1.709 0.27735,-3.30941 0.23146,-5.05352 -0.0377,-1.43266 -0.54334,-3.07873 -0.57864,-4.66777 -0.046,-2.06908 -0.39548,-3.99166 -0.77152,-5.97935 -0.32744,-1.73088 -0.31723,-3.57311 -0.50148,-5.32356 -0.15166,-1.44058 -0.19317,-2.89673 -0.30861,-4.32057 -0.1051,-1.29644 -0.37265,-2.35935 -0.77152,-3.66477 -0.38087,-1.24653 -2.09033,-2.66833 -2.73888,-3.39474 -0.97621,-1.09337 -3.11313,-1.5981 -4.4748,-2.19886 -1.7285,-0.76257 -3.61781,-1.36026 -5.32346,-1.92882 -1.79376,-0.59794 -3.20993,-1.76766 -4.62909,-2.89324 -1.14992,-0.912 -1.60462,-2.09059 -2.2374,-3.35615 -0.58464,-1.16927 -1.14516,-2.51827 -1.58162,-3.6262 -0.61799,-1.56879 -0.84386,-3.13452 -1.11869,-4.78348 -0.20591,-1.23558 -0.37415,-2.47643 -0.57864,-3.70335 -0.25363,-1.52178 -0.56,-3.01674 -0.69437,-4.62918 -0.13454,-1.61448 -1.09687,-2.9653 -1.69733,-4.16626 -0.69734,-1.39471 -1.5431,-2.48263 -2.27597,-3.81908 -0.73901,-1.34759 -0.38308,-3.29127 -0.30861,-4.70634 0.084,-1.59484 1.15675,-3.61992 1.77449,-4.93779 0.42378,-0.90405 -0.0115,-2.97272 -0.0386,-3.97337 -0.047,-1.73887 -0.93111,-3.64738 -1.35015,-5.32357 -0.396,-1.58397 -1.72574,-2.42487 -2.62316,-3.47188 -0.87448,-1.02026 -1.95103,-1.73895 -3.04748,-2.62321 -1.56572,-1.26268 -2.65656,-2.47493 -4.05046,-3.81907 -1.16919,-1.12745 -2.65595,-1.96371 -4.05047,-2.85466 -1.1792,-0.75341 -2.51867,-1.12381 -3.74185,-1.9674 -1.33886,-0.92336 -2.16783,-1.70375 -3.20179,-2.77751 -0.99965,-1.03812 -1.58962,-2.29741 -2.27598,-3.54904 -0.64319,-1.17285 -1.06501,-2.37777 -1.54304,-3.66477 -0.39306,-1.05827 -0.56603,-2.55844 -0.81009,-3.62619 -0.25879,-1.13217 -0.41548,-2.37226 -0.61721,-3.54904 -0.27963,-1.63127 -0.34368,-3.32293 -0.42433,-4.97637 -0.0749,-1.53482 -0.0379,-2.82981 -0.0772,-4.32057 -0.0421,-1.60008 -0.9116,-3.33096 -1.35015,-4.82206 -0.51211,-1.74121 -1.27452,-3.42551 -1.77449,-5.0921 -0.62145,-2.07158 -1.27278,-3.72611 -2.12166,-5.16925 -0.96296,-1.63703 -1.27214,-3.64702 -2.3917,-5.24641 -0.82769,-1.18248 -0.37814,-3.2308 -0.30862,-4.55203 0.0916,-1.74085 2.06852,-3.11412 2.97035,-4.16626 1.06352,-1.24078 1.91216,-2.21965 3.20179,-3.27901 1.33818,-1.09923 1.87276,-2.3909 2.85461,-3.81907 0.86963,-1.26496 1.60231,-2.21054 2.62315,-3.39473 1.00446,-1.16521 0.98394,-2.85546 1.38873,-4.20484 0.34879,-1.16268 0.24085,-2.37274 0.30861,-3.6262 0.0664,-1.22867 -0.85058,-3.1438 -1.273,-4.32056 -0.4957,-1.38087 -0.42892,-2.82111 -0.57864,-4.24341 -0.18736,-1.77986 0.30824,-3.68814 0.57864,-5.40072 0.36959,-2.34084 0.7524,-4.63164 0.92582,-7.059502 0.14721,-2.06113 0.62679,-4.373072 0.84867,-6.480849 0.16643,-1.58127 0.5692,-2.520016 1.04154,-3.973384 0.78925,-2.428465 -1.90526,-1.582287 -3.31752,-1.543056 -1.41968,0.03943 -2.92606,0.424334 -4.4748,0.424334 -1.24027,1.1e-5 -2.45713,0.124619 -3.70327,0 -2.13216,-0.213211 -1.65087,-1.675112 -1.69733,-3.394726 -0.0334,-1.236439 0.24054,-2.680349 0.3086,-3.973385 0.13181,-2.504828 -0.45446,-2.529162 -1.35016,-4.320573 -0.66579,-1.331609 -2.24493,-1.346819 -3.47182,-1.697358 -1.8521,-0.529174 -3.06378,-0.599932 -4.82197,-1.427337 -1.74566,-0.821497 -2.15798,-1.049616 -4.12762,-0.154302 -2.27243,1.032933 -3.1739,1.905421 -4.97628,3.124695 -1.75873,1.189758 -3.23408,3.078762 -4.9377,4.397718 -1.56803,1.21397 -2.8661,1.737427 -4.70626,2.276016 -1.62505,0.475638 -2.62873,0.617231 -4.39763,0.617231 -1.82367,0 -3.62128,-0.02802 -5.43919,-0.07716 -2.74021,-0.07405 -5.47398,-0.03857 -8.21665,-0.03857 -1.69806,-2.2e-5 -3.42989,1.501992 -4.74483,2.468891 -1.22411,0.900072 -2.90047,1.151967 -4.20476,1.504482 -2.16959,0.586387 -1.73966,-0.706526 -2.89319,-1.581639 -0.59676,-0.452733 -0.55398,-4.094508 -0.73295,-5.014938 -0.0344,-0.176671 -0.12197,-0.336055 -0.19288,-0.501502 -0.89722,-2.093504 -1.22136,-2.10083 -3.39466,-2.931809 -2.55698,-0.977697 -5.41099,-0.983013 -8.17808,-1.195878 -1.39954,-0.107655 -2.73632,0.124675 -4.08903,0.231459 -1.7105,0.135061 -2.73115,-0.03201 -4.4748,-0.424334 -2.2347,-0.502808 -3.75792,-0.117349 -5.67065,0.501491 -1.65503,0.535451 -2.39427,1.098151 -4.39765,1.195867 -2.57835,0.125769 -4.38243,-0.623239 -6.6736,-1.504483 -1.7434,-0.670545 -3.06815,-1.146182 -4.82199,-1.890244 -2.16591,-0.918878 -3.90809,-1.784364 -5.43919,-2.777506 -0.67963,-0.440862 -2.98868,-0.214674 -3.85758,-0.308616 -0.44467,-0.04806 -0.82534,-0.06654 -1.19585,-0.07716 z"
       id="path3177"
       inkscape:label="Moita dos Ferreiros" />
    <path
       style="fill:#d9d9d9;fill-opacity:1;fill-rule:evenodd;stroke:#787878;stroke-width:1px;stroke-linecap:butt;stroke-linejoin:miter;stroke-opacity:1"
       d="m 194.22961,-58.361553 c -0.3663,-0.03078 -0.63295,0.141115 -0.73294,0.578648 -0.18907,0.8272 -0.62571,1.621672 -0.57864,2.468897 0.10251,1.845504 0.13478,3.182318 1.273,4.320569 1.04297,1.042987 2.09018,1.513254 3.04749,2.700356 1.01392,1.257282 1.73477,2.071319 2.77746,3.394733 1.11892,1.420202 1.64247,2.824419 2.77745,4.320569 0.86831,1.14459 1.39732,2.250094 2.19883,3.43331 0.3223,0.475792 2.26231,2.658015 2.27598,3.163273 0.0402,1.487614 0.15277,2.292399 -0.23146,3.973381 -0.30543,1.336341 -1.6524,3.690214 -1.35016,4.899217 0.36196,1.44783 0.1092,2.304747 1.19586,3.279004 1.07849,0.966937 2.1381,1.712041 3.20179,2.661779 1.24014,1.107288 2.56526,1.765223 3.74186,2.854662 0.76314,0.70663 2.59664,1.79124 3.04749,2.97039 0.48069,1.25723 1.39196,2.159528 0.81008,3.7804988 -0.48967,1.3641175 -0.98832,2.4178908 -1.15727,3.896228 -0.10283,0.8997011 -0.72636,2.8292748 -0.27003,3.7419213 0.6252,1.25041175 0.35802,1.98799118 1.85164,2.89323814 1.01615,0.61586306 2.21247,1.16821626 3.16322,1.92882536 0.78531,0.6282591 2.48944,1.5067921 3.00891,2.4303204 0.70407,1.2517027 1.6364,2.242013 1.46588,3.8190747 -0.14709,1.3606213 -0.13367,2.8628333 -0.42433,4.2434163 -0.38325,1.820497 -0.40317,3.722479 -0.84867,5.593593 -0.57849,2.429699 -1.58371,4.986219 -1.00297,7.599574 0.34133,1.536026 0.37989,2.910302 1.4273,4.243416 0.89671,1.141279 1.94562,2.169542 2.93176,3.279003 1.21368,1.365398 2.53104,2.15273 3.81902,3.394733 1.10107,1.061773 2.18358,2.027236 3.24036,3.124698 0.9793,1.016987 2.00382,2.02921 3.00891,3.20185 1.12459,1.312033 2.10697,2.362351 2.89319,3.934804 0.65502,1.310046 1.50912,2.616795 1.92879,4.127686 0.37651,1.355486 0.83496,2.827627 1.04155,4.20484 0.27179,1.811911 0.46307,3.721406 1.00296,5.439288 0.47763,1.519681 0.82942,2.997512 1.42732,4.552029 0.598,1.55486 0.92054,2.486637 1.62018,3.973385 0.47364,1.00651 1.37557,2.237779 1.54303,3.510456 0.18842,1.432017 0.66055,2.82517 0.42433,4.281989 1.2001,0.487822 1.60271,0.84649 2.31455,2.507475 0.0709,0.165447 0.15853,0.324831 0.19288,0.501502 0.17897,0.92043 0.13619,4.562205 0.73295,5.014938 1.15353,0.875113 0.7236,2.168026 2.89319,1.581639 1.30429,-0.352515 2.98065,-0.60441 4.20476,-1.504482 1.31494,-0.966899 3.04677,-2.468913 4.74483,-2.468891 2.74267,0 5.47644,-0.03548 8.21665,0.03857 1.81791,0.04914 3.61552,0.07716 5.43919,0.07716 1.7689,0 2.77258,-0.141593 4.39763,-0.617231 1.84016,-0.538589 3.13823,-1.062046 4.70626,-2.276016 1.70362,-1.318956 3.17897,-3.20796 4.9377,-4.397718 1.80238,-1.219274 2.70385,-2.091762 4.97628,-3.124695 1.96964,-0.895314 2.38196,-0.667195 4.12762,0.154302 1.75819,0.827405 2.96987,0.898163 4.82197,1.427337 1.22689,0.350539 2.80603,0.365749 3.47182,1.697358 0.8957,1.791411 1.48197,1.815745 1.35016,4.320573 -0.0681,1.293036 -0.34201,2.736946 -0.3086,3.973385 0.0465,1.719614 -0.43483,3.181515 1.69733,3.394726 1.24614,0.124619 2.463,1.1e-5 3.70327,0 1.54874,0 3.05512,-0.384901 4.4748,-0.424334 1.41226,-0.03923 4.10677,-0.885409 3.31752,1.543056 1.06119,-0.870043 2.46034,-1.929677 3.00892,-2.777507 0.89076,-1.37667 1.55558,-2.627291 2.62316,-3.973384 1.00094,-1.262069 1.79869,-2.374648 3.27894,-3.201852 0.88861,-0.496577 2.24511,-1.059198 3.12463,-1.813098 1.21909,-1.044926 2.20415,-1.726807 3.12465,-3.047538 0.86635,-1.243028 1.5436,-2.280695 2.3917,-3.510467 0.97729,-1.417097 1.57544,-2.492019 2.00594,-4.166261 0.52738,-2.050912 0.78581,-3.967714 1.19585,-6.017935 0.21387,-1.069341 1.06209,-3.353675 0.50149,-4.474875 -0.80283,-1.605697 -1.47147,-2.818876 -2.93176,-3.54904 -2.18991,-1.094967 -3.96877,-2.08781 -6.01782,-3.240426 -1.88272,-1.059046 -2.84591,-2.264793 -4.39765,-3.549039 -1.55375,-1.285875 -2.06882,-2.272249 -3.12464,-4.050533 -0.82508,-1.389631 -1.70295,-2.948641 -2.23741,-4.552029 -0.60318,-1.809615 -1.8306,-3.156337 -2.16024,-4.474875 -0.44319,-1.772812 -0.94849,-3.938437 -1.273,-5.439288 -0.42595,-1.970074 -0.44309,-3.628286 -0.9644,-5.400712 -0.47962,-1.63075 -1.38395,-3.43634 -1.7359,-5.246405 -0.47213,-2.428131 -1.13402,-4.102481 -1.27301,-6.673737 -0.0946,-1.7505405 -0.11571,-3.4841245 -0.11572,-5.284982 0,-1.6292019 -0.0794,-3.1339828 -0.15431,-4.74491013 -0.072,-1.54752917 -0.58581,-3.39359847 -0.69437,-4.39772297 -0.21354,-1.975278 -0.32916,-3.331786 -1.273,-4.8220635 -0.96678,-1.5265214 -2.01991,-3.0043344 -2.27597,-4.8992164 -0.2109,-1.560698 -0.0238,-3.9111 -0.65579,-5.400712 -0.67755,-1.597129 -1.08082,-2.818013 -1.62018,-4.320569 -0.48065,-1.338967 -0.83754,-2.901809 -1.35016,-4.166264 -0.44047,-1.086502 -0.76247,-4.259632 -1.50446,-5.130676 -0.9909,-1.16326 -1.32326,-2.24214 -3.08606,-2.816085 -1.58527,-0.516142 -3.12583,-1.219779 -4.70625,-1.65879 -1.66845,-0.463468 -3.59224,-0.728954 -5.16916,-1.350177 -1.58878,-0.625895 -3.18864,-1.232859 -4.89913,-1.735943 -2.64633,-0.778346 -5.23857,-1.533928 -7.71516,-2.584627 -1.71132,-0.726022 -3.09946,-1.960617 -5.05343,-1.774519 -2.41761,0.230252 -2.87634,0.490272 -4.74484,1.735943 -1.45974,0.973178 -2.01169,1.90027 -3.47181,3.047544 -0.42303,0.332392 -3.1207,3.020615 -3.24038,3.047545 -1.818,0.40906 -2.88431,1.003169 -4.74482,-0.07715 -1.65532,-0.961174 -2.10404,-1.504641 -3.27894,-2.777509 -1.14501,-1.240441 -2.39141,-2.314171 -3.39468,-3.819075 -0.8737,-1.310586 -1.71842,-2.933249 -2.77745,-3.780498 -1.46225,-1.169808 -2.20511,-1.935999 -4.32049,-1.465907 -1.69308,0.376247 -3.51732,0.766574 -5.16917,1.427331 -1.60657,0.642637 -2.95295,1.439219 -4.82197,1.54306 -1.80986,0.100548 -4.17381,0.458422 -5.82496,-0.270036 -1.44215,-0.636255 -2.76908,-1.289993 -4.32049,-1.928825 -1.1669,-0.4805 -3.65974,-0.98421 -4.47479,-1.697367 -1.361,-1.190897 -3.23266,-1.973471 -4.82198,-3.279003 -1.23393,-1.013604 -2.22423,-1.943428 -3.89616,-2.468897 -2.30605,-0.724777 -4.13428,-0.647658 -6.67361,-0.77153 -1.28235,-0.06256 -2.66235,-0.154306 -4.01189,-0.154306 -1.99775,0 -4.4762,0.721965 -6.40358,0.347189 -1.32168,-0.256998 -3.3373,-1.95221 -4.43622,-2.044556 z"
       id="path3182"
       inkscape:label="Reguengo Grande" />
    <path
       style="fill:#bc80bd;fill-opacity:1;fill-rule:evenodd;stroke:#787878;stroke-width:1px;stroke-linecap:butt;stroke-linejoin:miter;stroke-opacity:1"
       d="m 221.271,2.898 c 0.786,0.628 2.49,1.507 3.009,2.43 0.704,1.252 1.637,2.242 1.466,3.819 -0.147,1.361 -0.134,2.863 -0.424,4.244 -0.384,1.82 -0.403,3.722 -0.849,5.593 -0.578,2.43 -1.584,4.987 -1.003,7.6 0.341,1.536 0.38,2.91 1.427,4.243 0.897,1.142 1.946,2.17 2.932,3.279 1.214,1.366 2.531,2.153 3.819,3.395 1.101,1.062 2.184,2.027 3.241,3.125 0.979,1.017 2.003,2.029 3.008,3.202 1.125,1.312 2.107,2.362 2.894,3.934 0.655,1.31 1.509,2.617 1.928,4.128 0.377,1.356 0.835,2.828 1.042,4.205 0.272,1.812 0.463,3.721 1.003,5.439 0.478,1.52 0.829,2.998 1.427,4.552 0.598,1.555 0.921,2.487 1.62,3.974 0.474,1.006 1.376,2.237 1.543,3.51 0.189,1.432 0.661,2.825 0.425,4.282 -0.313,-0.127 -0.631,-0.253 -1.08,-0.424 -2.557,-0.978 -5.411,-0.983 -8.178,-1.196 -1.4,-0.108 -2.737,0.125 -4.089,0.231 -1.711,0.135 -2.732,-0.032 -4.475,-0.424 -2.235,-0.503 -3.758,-0.117 -5.671,0.502 -1.655,0.535 -2.394,1.098 -4.398,1.195 -2.578,0.126 -4.382,-0.623 -6.673,-1.504 -1.744,-0.671 -3.068,-1.146 -4.822,-1.89 -2.166,-0.919 -3.908,-1.785 -5.439,-2.778 -0.68,-0.441 -2.989,-0.215 -3.858,-0.308 -0.445,-0.049 -0.825,-0.067 -1.196,-0.078 -1.111,-0.031 -1.977,0.129 -3.24,0.463 -1.578,0.418 -3.871,1.941 -5.825,2.701 -2.09,0.813 -3.016,2.252 -4.128,3.819 -0.937,1.32 -2.317,2.157 -3.394,3.549 -0.848,1.095 -1.155,2.114 -1.273,3.124 -1.047,-0.318 -2.071,-0.7 -2.932,-1.195 -2.312,-1.331 -3.551,-1.502 -6.519,-1.736 -2.074,-0.164 -3.78,-0.92 -5.247,-1.158 -1.658,-0.269 -2.707,-0.539 -4.282,0 -1.25,0.429 -2.262,2.463 -3.471,1.929 -1.411,-0.622 -2.474,-1.072 -3.897,-2.006 -1.402,-0.92 -2.698,-2.307 -3.973,-3.742 -1.205,-1.356 -1.783,-2.839 -2.739,-4.127 -1.024,-1.381 -1.829,-2.545 -3.472,-3.125 -1.304,-0.461 -2.347,0.087 -2.854,-1.62 -0.374,-1.256 -0.899,-3.33 -1.852,-4.321 -0.848,-0.882 -2.239,-3.105 -3.973,-3.202 -2.091,-0.116 -4.224,-0.077 -6.365,-0.077 -2.096,0 -2.472,0.348 -4.166,1.08 -1.445,0.625 -2.489,1.703 -4.282,0.695 -1.172,-0.659 -3.103,-2.006 -4.822,-2.238 -1.115,-0.15 -3.207,0.638 -3.395,0.617 -1.97,-0.219 -2.914,-0.433 -4.745,-1.543 -1.119,-0.678 -3.404,-2.592 -4.667,-2.276 -1.46,0.365 -2.597,0.585 -3.974,1.273 -1.4,0.701 -3.185,1.974 -4.899,2.199 -0.654,0.086 -4.051,0.924 -4.32,-0.501 -0.417,-2.203 -0.21,-2.31 0.424,-4.591 0.38,-1.369 1.088,-2.805 0.849,-4.359 -0.177,-1.146 0.025,-3.31 -1.003,-4.166 -1.462,-1.219 -1.797,-1.749 -3.819,-1.968 -1.231,-0.133 -2.718,0.037 -3.781,-0.733 -1.079,-0.781 -2.784,-1.683 -3.163,-2.97 -0.428,-1.454 -0.625,-2.732 -1.003,-4.243 -0.321,-1.283 -0.338,-2.63 -1.08,-3.781 -0.713,-1.105 -1.011,-2.397 -2.199,-3.125 -1.26,-0.772 -2.285,-1.395 -3.665,-2.121 -1.118,-0.589 -2.964,-1.119 -3.896,-2.199 -0.77,-0.893 -2.197,-2.157 -2.97,-3.472 -0.812,-1.38 -2.417,-3.19 -1.929,-4.899 0.549,-1.923 1.179,-3.535 3.048,-4.861 0.909,-0.646 2.423,-1.501 3.201,-2.199 1.095,-0.981 2.256,-2.749 3.472,-3.472 1.566,-0.93 3.021,-2.106 4.321,-3.356 1.294,-1.245 2.59,-2.412 3.664,-3.896 1.007,-1.39 2.096,-2.808 3.086,-4.244 1.201,-1.74 2.518,-3.107 3.241,-5.053 0.599,-1.614 1.15,-3.154 1.851,-4.745 0.578,-1.31 1.193,-2.537 1.698,-3.819 0.724,-1.838 1.12,-3.93 2.276,-5.401 1.103,-1.404 1.715,-2.65 2.739,-3.896 0.912,-1.111 2.755,-3.318 4.359,-3.318 1.473,0 2.813,0.512 4.089,0.541 1.711,0.038 3.966,0.797 5.169,-0.772 0.76,-0.991 2.055,-2.152 2.623,-3.395 0.638,-1.396 0.829,-2.522 1.852,-3.742 0.976,-1.164 2.744,-2.646 2.893,-4.204 0.15,-1.581 0.428,-2.993 0.154,-4.591 -0.287,-1.677 -0.578,-3.214 -0.578,-4.976 0,-1.119 -0.436,-3.818 0.308,-4.9 0.941,-1.368 1.84,-2.84 3.125,-3.896 1.423,-1.169 2.111,-2.679 3.163,-3.819 0.677,-0.733 2.005,-2.027 3.202,-2.7 1.275,-0.718 2.503,-1.16 3.819,-1.852 1.571,-0.827 3.139,-1.711 4.899,-2.315 1.548,-0.53 3.106,-0.892 4.629,-1.427 1.458,-0.512 2.857,-1.231 4.321,-1.774 1.356,-0.504 2.802,-0.838 3.973,-1.775 1.148,-0.919 2.043,-1.465 3.317,-2.276 0.906,-0.576 1.919,-1.513 2.894,-2.045 0.453,-0.247 0.717,-0.435 0.996,-0.613 0.039,-0.729 0.561,-0.998 1.009,-2.087 0.478,-1.16 2.347,-2.352 3.202,-3.279 0.766,-0.829 1.172,-1.538 1.89,-2.314 0.022,-0.024 0.076,-0.041 0.116,-0.039 0.596,0.028 3.092,2.704 3.433,3.009 0.679,0.605 1.526,2.951 2.199,3.742 0.895,1.05 1.968,1.89 2.971,2.932 1.168,1.213 2.51,2.147 3.703,3.163 0.962,0.82 1.834,2.378 2.7,3.433 0.993,1.208 2.256,2.034 3.472,3.163 1.05,0.976 2.04,1.881 3.163,2.855 1.105,0.958 1.761,2.271 2.701,3.549 0.96,1.307 2.15,1.588 3.356,2.893 1.157,1.254 2.068,2.344 3.24,3.472 0.093,0.089 0.177,0.21 0.27,0.309 -0.169,0.507 -0.299,1.015 -0.27,1.543 0.103,1.845 0.135,3.182 1.273,4.321 1.043,1.043 2.09,1.513 3.048,2.7 1.013,1.257 1.734,2.071 2.777,3.395 1.119,1.42 1.642,2.824 2.777,4.32 0.869,1.145 1.398,2.25 2.199,3.434 0.323,0.475 2.263,2.658 2.276,3.163 0.04,1.487 0.153,2.292 -0.231,3.973 -0.306,1.337 -1.653,3.69 -1.35,4.899 0.362,1.448 0.109,2.305 1.195,3.279 1.079,0.967 2.139,1.712 3.202,2.662 1.24,1.107 2.566,1.765 3.742,2.855 0.763,0.706 2.597,1.791 3.048,2.97 0.48,1.257 1.392,2.16 0.81,3.781 -0.49,1.364 -0.989,2.418 -1.158,3.896 -0.102,0.9 -0.726,2.829 -0.27,3.742 0.626,1.25 0.358,1.988 1.852,2.893 0.16,0.097 0.334,0.214 0.502,0.309 0,0 0,0 0,0 0.895,0.507 1.861,0.979 2.661,1.62 z"
       id="path3192"
       inkscape:label="S. Bartolomeu dos Galegos e Moledo" />
    <path
       style="fill:#ffd43e;fill-opacity:1;fill-rule:evenodd;stroke:#787878;stroke-width:1px;stroke-linecap:butt;stroke-linejoin:miter;stroke-opacity:1"
       d="m -47.525057,108.36612 c -0.300253,0.89044 -0.594523,1.78543 -0.848668,2.70036 -0.354147,1.27495 -0.858904,2.59302 -1.273002,3.97339 -0.491103,1.63703 -0.732169,2.88203 -1.002971,4.55202 -0.292825,1.80578 -0.74464,3.43726 -1.041547,5.16925 -0.365479,2.13201 -0.659859,3.13188 -1.157275,6.36513 -0.243888,1.58531 -0.432603,3.28498 -0.694365,4.89922 -0.273767,1.68826 -0.560294,3.06154 -0.73294,4.74491 -0.207475,2.02291 -0.551166,3.96283 -0.887244,5.97936 -0.240611,1.44368 -0.590496,2.73491 -0.810092,4.08911 -0.29308,1.80737 -0.953212,3.89282 -1.041548,5.7479 -0.0876,1.83962 -0.280774,3.72525 -0.578637,5.55501 -0.343319,2.109 -0.655789,4.10267 -0.655789,6.28797 0,1.76033 -0.07963,3.55761 0.231455,5.24641 0.242908,1.31866 0.515007,2.63872 0.848668,3.97338 0.353837,1.41538 0.565861,2.98484 1.273003,4.32057 0.595953,1.1257 1.741744,2.9395 1.774487,4.28199 0.03903,1.60033 0.217946,3.19406 0.347182,4.74492 0.139704,1.67647 0.831364,3.96544 0.424334,5.59358 -0.310342,1.24141 -0.338389,3.26374 -0.848668,4.39773 -0.764773,1.69952 -1.850313,3.80374 -2.623156,5.82506 -0.575879,1.50617 -1.082983,2.91612 -1.697336,4.51345 -0.603357,1.56876 -1.295627,3.28405 -1.890215,4.97636 -0.618805,1.76125 -1.168692,3.38306 -1.851639,5.16925 -0.224476,0.58709 -0.421536,1.16185 -0.617213,1.73595 1.502655,0.1211 2.945328,0.46237 4.127613,0.8101 1.611537,0.474 3.56723,0.46739 5.130584,0.84869 1.333454,0.32525 2.779013,1.1363 4.24334,1.54306 1.819896,0.50552 3.708017,0.74396 5.516342,1.15729 1.912504,0.43717 3.814887,1.16315 5.554918,1.77453 1.510159,0.53061 2.750009,1.10383 4.24334,1.54305 1.648196,0.48479 3.366522,1.18089 5.246312,1.77453 1.615752,0.51025 3.028267,0.70189 4.667673,1.15729 1.999757,0.5555 4.086313,1.09209 5.902102,1.69737 0.377066,0.12569 0.668721,0.30554 0.964395,0.50149 0.5014,-0.52242 1.080569,-0.95238 1.65876,-1.42733 1.196388,-0.98276 2.512446,-1.80135 3.896158,-2.43032 1.670681,-0.75942 2.7797702,-0.76859 4.0890367,-0.5015 0.1082763,-0.41276 0.2556064,-0.81089 0.3471829,-1.23445 0.2740484,-1.2675 0.9063355,-2.49284 1.2730012,-3.62618 0.3496722,-1.08084 1.1173771,-2.39357 1.6973369,-3.58762 1.112824,-2.29115 0.8665882,-3.2184 2.8546107,-5.05353 1.19028942,-1.09874 2.6454878,-2.08745 3.9347332,-2.89323 2.1032237,-1.31454 4.3074181,-1.59651 6.1721317,-2.77751 1.8107447,-1.14683 1.4264067,-1.05931 1.9287907,-3.12469 0.311754,-1.28168 0,-2.92008 0,-4.24342 10e-7,-1.28327 -0.04697,-2.55148 -0.07715,-3.81908 -0.03067,-1.28795 -0.330746,-2.74403 -0.501486,-3.97338 -0.1863425,-1.3417 -0.4236432,-2.6568 -0.6172121,-4.05053 -0.1809364,-1.30276 -0.4780947,-2.58558 -0.7329406,-3.89622 -0.3040308,-1.56366 -1.1504372,-2.8123 -1.8902156,-4.20485 -0.8621448,-1.62287 -1.3251332,-2.67206 -2.2759732,-4.16626 -0.742692,-1.16711 -1.4398029,-2.41174 -2.1988217,-3.62619 -0.8971771,-1.43551 -1.71773645,-2.89582 -2.70030774,-4.32058 -0.89102936,-1.29202 -1.15598076,-3.15576 -1.62018416,-4.5906 -0.714971,-2.20995 -1.1496376,-4.18984 -1.5816084,-6.59658 -0.2821783,-1.57218 -0.038576,-3.38389 -0.038576,-4.97638 -1.1e-6,-1.98332 0.1687482,-4.01639 0.2700303,-5.94077 0.073136,-1.38955 0.2669671,-2.75071 0.4243345,-4.12769 0.1648407,-1.44242 0.3816301,-2.87952 0.5014849,-4.39773 0.1740203,-2.20426 -0.154303,-4.29653 -0.154303,-6.51943 3.3e-6,-1.52865 -0.6033646,-3.00347 -1.0415467,-4.39772 -0.5803618,-1.84663 -1.1326407,-3.17817 -2.0059429,-4.82206 -0.7224085,-1.35985 -1.8758252,-2.36293 -2.7003077,-3.66477 -0.9109622,-1.43839 -1.8674079,-2.25762 -3.1246409,-3.1247 -1.254997,-0.86553 -2.923733,-1.66126 -4.089037,-2.35317 -1.582957,-0.9399 -2.675106,-1.34921 -4.629098,-1.85167 -1.452459,-0.37349 -2.415975,-0.14769 -3.819006,0 -1.27663,0.13439 -3.389512,1.65224 -4.667675,2.35317 -1.293604,0.70942 -2.62022,2.09742 -3.973309,2.9704 -1.601151,1.03302 -1.921107,1.78746 -3.703279,2.46889 -1.043257,0.39889 -1.765848,-1.47224 -2.275973,-2.23744 -0.81141,-1.21713 -1.568615,-2.48952 -2.391701,-3.62619 -0.861232,-1.18932 -1.287615,-2.57016 -2.044519,-3.81907 -0.837583,-1.38206 -1.897979,-2.56155 -3.008914,-3.85766 -0.485515,-0.56644 -0.969232,-1.06643 -1.427305,-1.58164 z m 30.166291,127.72684 c -0.234589,0.25276 -0.457363,0.53506 -0.655789,0.84868 0.206785,-0.32469 0.41415,-0.58906 0.655789,-0.84868 z m -1.697336,3.51045 c -0.118511,0.41584 -0.227208,0.80511 -0.308606,1.23445 0.07847,-0.41837 0.197349,-0.82999 0.308606,-1.23445 z"
       id="path3203"
       inkscape:label="Atalaia" />
    <path
       style="fill:#8dd3c7;fill-opacity:1;fill-rule:evenodd;stroke:#787878;stroke-width:1px;stroke-linecap:butt;stroke-linejoin:miter;stroke-opacity:1"
       d="m -43.667475,-11.413938 c -0.321325,0.743076 -0.643072,1.4943589 -0.964395,2.2374373 -2.435084,0.2029268 -2.479521,0.2626443 -4.243341,1.7745187 -1.326987,1.1374384 -2.124631,2.3900948 -3.124641,3.2790037 -0.819163,0.7281584 -2.425478,1.8501789 -2.970338,2.8160858 -0.949758,1.68369189 -2.168867,2.4251822 -1.350154,4.7449102 0.508438,1.4406009 0.897002,2.4901093 1.581609,3.8190747 0.651756,1.2651976 1.154934,2.5230837 2.044518,3.6261916 0.881755,1.093395 1.898476,2.297422 2.816035,3.356157 0.994379,1.147381 2.543922,2.240047 3.278945,3.587615 0.836715,1.534005 1.573343,2.976103 2.198821,4.629182 0.527076,1.39301 1.2216,2.854855 1.465882,4.320568 0.255341,1.53207 0.501487,2.882694 0.501485,4.474877 0,1.857048 -0.100118,3.741353 0,5.593593 0.0713,1.319021 0.45318,2.787928 0.308607,4.089111 -0.203292,1.829662 -0.473472,3.687802 -0.424334,5.555017 0.04297,1.632756 0.147603,3.269239 0.192879,4.899217 0.05549,1.997794 0.260155,4.006748 0.154303,6.017935 -0.09645,1.8326 -0.07692,3.474713 0.07715,5.323559 0.197603,2.371276 0.54006,4.833023 0.540061,7.213813 0,2.229179 0.278499,4.646096 0.154304,6.943766 -0.09484,1.754591 -0.358869,3.306034 -0.617213,4.89922 -0.187583,1.15677 -0.05561,3.045037 -0.424334,4.243417 -0.454822,1.478183 -0.776468,2.998333 -1.002972,4.629177 -0.250083,1.800624 -0.427517,3.606776 -0.92582,5.400711 -0.474072,1.706693 -0.441439,3.797864 -1.002971,5.439291 -0.507028,1.48212 -0.848574,3.00168 -1.350153,4.55202 -0.245553,0.75901 -0.505818,1.52663 -0.771517,2.31459 0.458073,0.51521 0.94179,1.0152 1.427305,1.58164 1.110935,1.29611 2.171331,2.4756 3.008914,3.85766 0.756904,1.24891 1.183287,2.62975 2.044519,3.81907 0.823086,1.13667 1.580291,2.40906 2.391701,3.62619 0.510125,0.7652 1.232716,2.63633 2.275973,2.23744 1.782172,-0.68143 2.102128,-1.43587 3.703279,-2.46889 1.353089,-0.87298 2.679705,-2.26098 3.973309,-2.9704 1.278163,-0.70093 3.391045,-2.21878 4.667675,-2.35317 1.403031,-0.14769 2.366547,-0.37349 3.819006,0 1.953992,0.50246 3.046141,0.91177 4.629098,1.85167 1.165304,0.69191 2.83404,1.48764 4.089037,2.35317 1.257233,0.86708 2.2136789,1.68631 3.1246411,3.1247 0.8244825,1.30184 1.9778992,2.30492 2.7003077,3.66477 0.8733022,1.64389 1.4255811,2.97543 2.0059429,4.82206 0.4381821,1.39425 1.04155,2.86907 1.0415467,4.39772 0,2.2229 0.3283233,4.31517 0.154303,6.51943 -0.1198548,1.51821 -0.3366442,2.95531 -0.5014849,4.39773 -0.1573674,1.37698 -0.3511988,2.73814 -0.4243345,4.12769 -0.1012821,1.92438 -0.2700314,3.95745 -0.2700303,5.94077 0,1.59249 -0.2436025,3.4042 0.038576,4.97638 0.4319708,2.40674 0.8666374,4.38663 1.5816084,6.59658 0.4642034,1.43484 0.7291548,3.29858 1.62018416,4.5906 0.98257129,1.42476 1.80313064,2.88507 2.70030774,4.32058 0.7590188,1.21445 1.4561297,2.45908 2.1988217,3.62619 0.95084,1.4942 1.4138284,2.54339 2.2759732,4.16626 0.7397784,1.39255 1.5861848,2.64119 1.8902156,4.20485 0.2548459,1.31064 0.5520042,2.59346 0.7329406,3.89622 0.1935689,1.39373 0.4308696,2.70883 0.6172121,4.05053 0.1707398,1.22935 0.4708178,2.68543 0.5014858,3.97338 0.03018,1.2676 0.07715,2.53581 0.07715,3.81908 0,1.32334 0.311754,2.96174 0,4.24342 -0.502384,2.06538 -0.118046,1.97786 -1.9287905,3.12469 -1.8647136,1.181 -4.068908,1.46297 -6.1721317,2.77751 -1.2892454,0.80578 -2.74444378,1.79449 -3.9347332,2.89323 -1.9880225,1.83513 -1.7417867,2.76238 -2.8546107,5.05353 -0.5799598,1.19405 -1.3476647,2.50678 -1.6973369,3.58762 -0.3666657,1.13334 -0.9989528,2.35868 -1.2730012,3.62618 -0.088924,0.41129 -0.2399217,0.79586 -0.3471829,1.19588 -0.0032,0.0119 0.00314,0.0266 0,0.0386 0.4876774,0.0995 0.9957589,0.2316 1.5816084,0.38577 1.6550043,0.43553 2.21435,2.41893 2.8931865,3.81908 0.733911,1.51371 1.7663975,1.88374 3.2017937,2.6232 1.3297207,0.68501 3.777712,0.0471 5.0534324,-0.15431 2.1758436,-0.34358 4.1869771,-1.7644 6.1335551,-2.6232 1.936243,-0.85422 3.78243,-1.68155 5.554918,-2.6232 1.615242,-0.85811 2.789162,-1.64077 4.513371,-2.27601 0.1974,-0.0727 0.39019,-0.10419 0.578637,-0.11573 1.31913,-0.0809 2.455414,1.21314 3.356096,2.04454 1.157358,1.06834 2.037321,2.14119 3.394672,3.31758 1.750302,1.51696 1.995791,1.71355 4.089038,2.35318 1.190737,0.36382 2.839179,-0.33008 3.896157,-0.50149 1.997882,-0.32399 2.960414,0.26231 4.551947,0.84867 1.005218,0.37037 2.282133,3.07011 2.777459,3.97339 1.058546,1.93031 1.751997,2.46679 3.896158,3.47188 2.129681,0.99828 1.647058,-0.7837 2.314549,-2.04455 0.492943,-0.93112 0,-3.60876 0,-4.62918 0,-1.20535 0,-2.38227 0,-3.58763 0,-0.9527 0.267586,-1.90929 0.385758,-2.85465 0.0099,-0.0794 4.066101,3.08629 4.513371,3.47189 1.413789,1.21881 2.135458,1.15729 4.050461,1.15729 1.945666,-1e-5 3.363417,-1.26866 4.976281,-2.00598 3.29314,-1.50545 4.08378,-0.20822 4.744826,2.93181 0.341747,1.62334 0.917329,3.26006 1.273002,4.86064 0.293056,1.31874 0.07716,2.87793 0.07716,4.32057 0,1.93128 0.103634,3.41745 0.501486,5.20783 0.434101,1.95344 2.882154,2.37207 4.436218,2.81609 2.118646,0.60533 3.521491,-1.71201 4.47479,-2.97039 0.812187,-1.0721 1.97759,-2.13397 2.93176,-3.27901 0.881381,-1.05765 2.040932,-1.46695 3.086072,-2.04455 0.975578,-0.53913 1.747183,-0.57013 2.50743,-0.42434 0.226856,-0.54309 0.479676,-1.06819 0.694359,-1.62021 0.479118,-1.23202 1.276866,-2.89909 1.350158,-4.47488 0.06066,-1.30417 0.583477,-3.51276 0.231456,-4.74492 -0.374199,-1.3097 -0.612903,-3.0423 -1.504458,-4.12768 -0.992899,-1.20876 -1.92699,-2.7694 -2.970343,-3.89623 -0.944645,-1.02025 -1.966199,-2.76275 -3.201789,-3.54903 -2.356078,-1.49937 -1.785856,-2.29364 -3.317518,-4.66776 -1.135764,-1.76049 -2.722136,-3.7112 -0.308613,-5.40071 1.237623,-0.86637 2.171066,-2.01525 4.050461,-1.38876 1.262872,0.42098 2.832526,1.2285 4.05046,1.38876 0.853116,0.11224 3.510324,0.98013 4.32049,0.34719 1.094076,-0.85476 2.358054,-1.75033 3.62613,-2.66178 1.355585,-0.97436 2.89608,-1.9034 4.166189,-3.12471 1.168718,-1.12378 2.240188,-1.94643 3.356098,-3.20185 0.34548,-0.38866 0.73474,-0.89327 1.1187,-1.38875 -0.91621,-0.92343 -1.93413,-1.95063 -2.81604,-3.16327 -0.74719,-1.02743 -2.93282,-3.3454 -1.69733,-5.16925 0.94608,-1.39664 1.97176,-2.02667 3.04749,-3.31758 0.89844,-1.07816 1.7063,-2.66898 2.7003,-3.6262 0.82615,-0.79555 2.25103,-2.65378 3.47183,-3.54904 1.02044,-0.74833 2.21825,-1.88065 3.54898,-2.54605 1.70685,-0.85343 2.5547,-1.15307 2.89318,-3.24042 0.22752,-1.40306 0.18573,-4.12112 1.77449,-4.82206 1.07148,-0.47273 2.93385,-0.79853 3.9733,-1.6588 1.30605,-1.08087 2.17396,-1.68664 3.2018,-2.89324 0.89045,-1.04532 2.42885,-2.29399 2.77746,-3.54904 0.42823,-1.54167 0.74571,-3.82009 1.62018,-5.09209 0.86215,-1.25405 1.53894,-2.51242 2.46886,-3.7805 0.88435,-1.20597 1.99213,-3.1152 3.3561,-3.74193 1.41329,-0.64934 2.56281,-1.54006 4.32049,-1.00299 1.43409,0.43822 2.76132,1.07298 4.08903,1.5045 1.67247,0.54356 3.58719,1.47943 5.32346,1.62021 1.16879,0.0948 3.00634,0.66492 4.12762,0.57865 1.65362,-0.1272 3.17747,-0.50152 5.092,-0.50151 1.74155,0 2.91869,-0.60329 4.47481,-0.77152 1.3586,-0.14687 2.60874,-0.021 3.819,-0.73296 1.16353,-0.68444 3.01249,-2.05377 4.28192,-2.19886 0.88637,-0.1013 3.09204,-0.76453 3.819,0.30862 0.65581,0.96812 1.78667,3.46579 3.47182,2.6232 1.41936,-0.70969 2.13015,-0.74987 2.89319,-2.27601 0.86288,-1.72581 1.14197,-3.56783 1.9288,-5.24641 0.87756,-1.87218 2.22348,-3.53375 2.77745,-5.32356 0.58107,-1.87731 0.99563,-4.1995 2.04452,-5.7479 1.04352,-1.54047 1.01146,-2.11877 3.04749,-2.77751 1.26883,-0.41051 2.55427,-0.61194 3.74185,-1.35017 1.53152,-0.95206 2.77962,-1.87535 4.4748,-2.62321 1.05033,-0.46339 3.21827,-2.04831 4.66767,-2.04455 -0.0404,-0.10122 -0.0698,-0.20755 -0.11573,-0.30862 -0.83069,-1.82756 -1.85007,-2.53289 -2.89318,-3.97337 -0.98664,-1.36253 -2.56861,-2.13502 -3.54898,-3.4719 -0.99603,-1.35825 -2.06311,-2.2126 -1.77448,-3.89622 0.1565,-0.91295 1.16,-4.68844 0.1543,-5.59359 -0.90698,-0.81629 -2.84474,-1.59258 -3.54898,-2.35317 -1.0533,-1.1376 -2.44898,-1.58979 -1.4273,-3.47189 0.62386,-1.14925 2.53602,-2.85209 2.93176,-3.97338 0.72461,-2.053079 1.28857,-2.344228 -0.42433,-3.934802 -0.91964,-0.853972 -2.16913,-2.13555 -3.3561,-3.124694 -1.23613,-1.03013 -2.07655,-1.985079 -3.39467,-3.201852 -0.73413,-0.67767 -3.12466,-2.688188 -3.12465,-3.973384 0,-0.84429 -0.0145,-1.611636 0.0772,-2.391746 -1.04652,-0.3188 -2.07054,-0.700005 -2.93176,-1.195867 -2.3115,-1.330883 -3.55128,-1.501624 -6.51932,-1.735941 -2.07354,-0.163706 -3.77997,-0.919504 -5.24631,-1.157295 -1.65871,-0.268993 -2.70766,-0.53975 -4.28191,0 -1.25076,0.428846 -2.26211,2.462537 -3.47183,1.928817 -1.41072,-0.622391 -2.47399,-1.072667 -3.89615,-2.005973 -1.40219,-0.920207 -2.69827,-2.307498 -3.97332,-3.741926 -1.20512,-1.355787 -1.78334,-2.839755 -2.73888,-4.127687 -1.02406,-1.380255 -1.82883,-2.544797 -3.47182,-3.124695 -1.30453,-0.460427 -2.34693,0.0875 -2.85462,-1.620212 -0.37333,-1.25573 -0.8986,-3.329405 -1.85163,-4.320568 -0.84797,-0.881903 -2.23873,-3.105478 -3.97332,-3.201851 -2.09076,-0.116149 -4.22347,-0.07715 -6.365,-0.07715 -2.09578,0 -2.47208,0.347522 -4.16619,1.080142 -1.4445,0.624655 -2.48859,1.703144 -4.28192,0.694378 -1.17138,-0.6589 -3.10285,-2.005128 -4.82197,-2.237438 -1.11475,-0.150652 -3.20689,0.638086 -3.39468,0.617223 -1.97032,-0.218928 -2.91386,-0.433365 -4.74483,-1.543059 -1.11884,-0.678108 -3.40434,-2.591848 -4.66767,-2.276014 -1.45943,0.364865 -2.59661,0.584659 -3.97331,1.273024 -1.400408,0.700216 -3.184723,1.973279 -4.899129,2.198861 -0.654201,0.08609 -4.050896,0.923614 -4.32049,-0.501495 -0.416636,-2.202231 -0.209289,-2.309553 0.42433,-4.590604 0.380241,-1.368917 1.0877,-2.805432 0.848671,-4.359146 -0.176245,-1.145605 0.02514,-3.309507 -1.002972,-4.166263 -1.461832,-1.218216 -1.796353,-1.748732 -3.819003,-1.967402 -1.231079,-0.133086 -2.717736,0.0366 -3.780432,-0.732954 -1.079625,-0.781813 -2.784573,-1.682923 -3.163216,-2.970391 -0.427614,-1.453921 -0.625211,-2.732365 -1.002972,-4.243416 -0.320752,-1.283012 -0.337861,-2.629955 -1.080128,-3.780499 -0.712652,-1.104631 -1.011337,-2.396867 -2.198818,-3.124697 -1.26008,-0.772314 -2.28455,-1.395301 -3.664703,-2.121708 -1.118164,-0.588518 -2.964782,-1.11845 -3.896159,-2.19886 -0.76993,-0.893142 -2.19698,-2.157157 -2.970336,-3.471887 -0.811721,-1.379941 -2.417277,-3.189519 -1.92879,-4.899217 0.206926,-0.724263 0.441221,-1.407096 0.73294,-2.044554 -0.933412,-0.347666 -1.870428,-0.67231 -2.777459,-0.848684 C 59.994802,13.86615 58.54672,13.769967 56.591081,13.043569 54.458215,12.25135 52.339075,11.616182 50.611828,10.613249 48.95439,9.6508457 47.97823,8.4337859 46.214185,7.2956685 44.683311,6.3079927 43.276028,5.1955428 41.777966,4.4024304 40.58414,3.7703967 38.886002,2.5121487 37.49605,2.5507583 35.374738,2.6096851 33.134895,2.5411956 31.053888,2.8979466 28.917217,3.2642393 26.525001,3.7304693 24.341695,3.4765949 22.596993,3.2737172 20.683875,3.2030131 18.941081,2.7050639 16.62318,2.0427951 16.102936,1.1255497 14.273406,-0.14959812 12.64249,-1.2863173 11.313869,-2.0656501 9.2971252,-2.8499535 7.8451107,-3.4146356 6.3735688,-3.8488371 4.9766345,-4.54732 3.3105721,-5.3803664 2.3211228,-5.8379014 0.57898995,-6.3218398 -0.90454024,-6.7339374 -2.9009897,-7.4256829 -4.4744425,-7.1705231 c -1.5159203,0.2458293 -3.1004803,0.6550958 -4.6676737,0.5786483 -1.8007888,-0.087845 -3.5236178,-0.097292 -5.3234628,0 -1.628531,0.088029 -3.370497,-0.014866 -4.899129,0.3471883 -1.946365,0.4609891 -3.873742,0.6984315 -5.863525,0.9258366 -1.721466,0.1967423 -3.793174,0.3930613 -5.246311,-0.4243417 -1.180357,-0.6639628 -2.340711,-1.2673819 -3.626128,-1.8516731 -1.279633,-0.5816613 -2.819933,-0.9541531 -4.050461,-1.7745188 -1.195176,-0.7967995 -2.166182,-1.4485715 -3.741854,-1.6973665 -0.578198,-0.0913 -1.175337,-0.232618 -1.774488,-0.347188 z m 26.308709,247.506898 c -0.241639,0.25962 -0.449004,0.52399 -0.655789,0.84868 0.198426,-0.31362 0.4212,-0.59592 0.655789,-0.84868 z m -1.697336,3.51045 c -0.111257,0.40446 -0.230136,0.81608 -0.308606,1.23445 0.0814,-0.42934 0.190095,-0.81861 0.308606,-1.23445 z"
       id="path3214"
       inkscape:label="Lourinha" />
    <path
       style="display:inline;opacity:1;fill:none;fill-opacity:1;fill-rule:evenodd;stroke:#535353;stroke-width:1;stroke-linecap:butt;stroke-linejoin:miter;stroke-miterlimit:4;stroke-dasharray:none;stroke-opacity:1"
       d="m -97.793499,336.33449 c 0.567212,-1.01627 1.134424,-2.03254 1.701638,-3.04881 1.040938,-1.86506 2.006886,-3.55729 3.119665,-5.17591 0.917946,-1.33521 1.203692,-2.69071 1.914342,-4.25417 0.667192,-1.46785 0.806395,-3.40733 1.205326,-4.9632 0.377998,-1.47421 1.026054,-2.45497 1.701636,-3.68693 0.852757,-1.55506 1.196677,-3.45695 1.985243,-5.0341 0.806748,-1.61353 1.630797,-2.99153 2.552455,-4.39598 0.797339,-1.21502 2.232897,-2.66144 3.261469,-3.97055 1.119184,-1.42444 1.941861,-2.13028 2.906963,-3.89967 0.715128,-1.31108 2.038888,-2.52806 2.83606,-3.82874 0.832326,-1.35803 1.326556,-2.86055 1.843441,-4.32506 0.623378,-1.76629 0.674938,-2.80838 0.779916,-4.75049 0.07325,-1.35519 -0.132748,-2.65054 -0.283605,-3.97056 -0.149766,-1.31047 -0.624691,-2.85969 -0.850819,-4.25417 -0.267119,-1.64726 -0.212705,-3.35591 -0.212705,-5.0341 v -5.10501 c 0,-2.00385 0.67864,-3.70723 1.205326,-5.53041 0.378998,-1.31193 0.489836,-2.83164 0.709014,-4.18326 0.325803,-2.00914 0.902804,-3.53901 1.276228,-5.45953 0.321233,-1.65207 0.724517,-3.16803 0.992622,-4.82138 0.289307,-1.7841 0.625717,-3.47894 0.992621,-5.17591 0.32361,-1.49671 0.448868,-2.94891 0.850818,-4.39596 0.495201,-1.78276 1.028612,-3.37434 1.701637,-5.105 0.71257,-1.83237 1.10001,-3.81263 1.701637,-5.67223 0.544358,-1.68259 1.01232,-3.20398 1.630735,-4.82139 0.682948,-1.7862 1.224633,-3.41465 1.843439,-5.1759 0.594586,-1.69231 1.310983,-3.39444 1.91434,-4.9632 0.614353,-1.59733 1.125758,-3.03161 1.701638,-4.53779 0.772843,-2.0213 1.858583,-4.11449 2.623355,-5.81401 0.51028,-1.13397 0.540476,-3.15459 0.850819,-4.39598 0.407029,-1.62816 -0.285706,-3.92484 -0.42541,-5.60132 -0.129235,-1.55086 -0.315474,-3.15015 -0.354507,-4.75048 -0.03274,-1.34248 -1.176584,-3.12847 -1.772537,-4.25417 -0.707143,-1.33575 -0.922391,-2.90969 -1.276228,-4.32507 -0.33366,-1.33467 -0.607911,-2.65189 -0.850819,-3.97056 -0.311088,-1.68879 -0.212703,-3.48649 -0.212703,-5.24681 0,-2.18529 0.294793,-4.20135 0.638113,-6.31034 0.297862,-1.82976 0.479613,-3.6908 0.567211,-5.53043 0.08834,-1.85506 0.770443,-3.93576 1.063523,-5.74311 0.219596,-1.35422 0.539307,-2.66868 0.779918,-4.11237 0.33608,-2.01651 0.714245,-3.93292 0.92172,-5.95584 0.172648,-1.68335 0.435247,-3.06222 0.709015,-4.75048 0.261761,-1.61422 0.465127,-3.30698 0.709015,-4.89231 0.497415,-3.23325 0.768945,-4.24923 1.134424,-6.38124 0.296908,-1.73199 0.770699,-3.37012 1.063523,-5.1759 0.270803,-1.66999 0.501518,-2.90074 0.992621,-4.53777 0.414099,-1.38036 0.922081,-2.69562 1.276228,-3.97057 0.479043,-1.72458 1.107696,-3.41739 1.630735,-5.03409 0.501578,-1.55036 0.8401,-3.05567 1.347128,-4.53778 0.561532,-1.64142 0.518549,-3.752826 0.992622,-5.459509 0.498302,-1.793923 0.671636,-3.587992 0.92172,-5.388616 0.226501,-1.630843 0.537799,-3.130491 0.992621,-4.608674 0.368725,-1.198391 0.237827,-3.097401 0.425409,-4.25417 0.258345,-1.593165 0.543272,-3.137694 0.638113,-4.892297 0.124196,-2.297658 -0.141802,-4.719288 -0.141802,-6.948467 0,-2.380779 -0.36961,-4.860818 -0.567213,-7.232095 -0.154067,-1.848845 -0.167352,-3.485106 -0.0709,-5.317708 0.105851,-2.011187 -0.08631,-4.028942 -0.141802,-6.026737 -0.04528,-1.629977 -0.169739,-3.259535 -0.212705,-4.892291 -0.04914,-1.867215 0.222117,-3.700753 0.425409,-5.530415 0.144574,-1.301183 -0.212309,-2.793346 -0.283606,-4.112367 -0.100119,-1.852241 0,-3.744271 0,-5.601319 0,-1.592179 -0.24097,-2.934807 -0.496311,-4.466876 -0.244282,-1.465716 -0.961856,-2.93206 -1.488931,-4.32507 -0.625479,-1.653081 -1.361233,-3.074678 -2.197948,-4.608683 -0.735022,-1.347565 -2.26709,-2.468661 -3.261469,-3.616042 -0.917558,-1.058738 -1.954307,-2.239036 -2.836061,-3.33243 -0.889584,-1.1031049 -1.404388,-2.3508453 -2.056144,-3.6160429 -0.684608,-1.3289677 -1.051395,-2.3881494 -1.559833,-3.8287514 -0.818713,-2.3197269 0.397369,-3.06679426 1.347128,-4.7504861 0.544859,-0.9659047 2.158701,-2.1079542 2.977864,-2.8361127 1.000009,-0.8889122 1.792679,-2.1240902 3.119667,-3.2615286 1.763821,-1.5118734 1.819007,-1.5696409 4.25409,-1.7725689 l 1.134426,-2.6234044 c 0.601293,-1.390515 0.46041,-4.168598 0.709015,-5.743125 0.434888,-2.75434 0.406728,-5.525307 0.283606,-8.295627 -0.09714,-2.185777 -1.115113,-4.410598 -1.559834,-6.523056 -0.524301,-2.490477 -1.201651,-4.900004 -1.772538,-7.373891 -0.688982,-2.98564 -1.94509,-5.767605 -3.119667,-8.508335 -1.230914,-2.872185 -1.691165,-6.87287 -2.268848,-9.92639 -0.627173,-3.315117 -1.288739,-6.66903 -1.843439,-9.997294 -0.562575,-3.375508 -1.454578,-6.973322 -2.623357,-10.210002 -1.032323,-2.858794 -1.330627,-6.944202 -1.985243,-9.92639 -0.277777,-1.265451 -0.661098,-2.505403 -0.992621,-3.757848 l -3.137007,-13.260391 437.647594,-0.0281 0.45291,4.63678 -0.65117,483.7865 -473.551255,-1.98528 z"
       id="path3237"
       inkscape:label="path3237"
       sodipodi:nodetypes="csssssssssssssssssssssssssssssssssssssssssssssssssssssssssssssssssssssssscssssssssssccccccc" />
  </g>
  <g
     id="layer4"
     style="display:inline"
     transform="translate(101.08017,106.65832)">
    <text
       style="font-style:normal;font-variant:normal;font-weight:normal;font-stretch:normal;font-size:17.2821px;line-height:100%;font-family:Arial;text-align:start;writing-mode:lr-tb;text-anchor:start;white-space:pre;fill:#000000;fill-opacity:1;stroke:none;stroke-width:1px;stroke-linecap:butt;stroke-linejoin:miter;stroke-opacity:1"
       x="32.255379"
       y="128.24377"
       id="text3240"
       transform="scale(0.999991,1.000009)"><tspan
         id="tspan3242"
         x="32.255379"
         y="128.24377">Lourinhã</tspan></text>
    <text
       style="font-style:normal;font-variant:normal;font-weight:normal;font-stretch:normal;font-size:17.2821px;line-height:100%;font-family:Arial;text-align:start;writing-mode:lr-tb;text-anchor:start;white-space:pre;fill:#000000;fill-opacity:1;stroke:none;stroke-width:1px;stroke-linecap:butt;stroke-linejoin:miter;stroke-opacity:1"
       x="-48.218578"
       y="197.58609"
       id="text3244"
       transform="scale(0.999991,1.000009)"><tspan
         id="tspan3246"
         x="-48.218578"
         y="197.58609">Atalaia</tspan></text>
    <text
       style="font-style:normal;font-variant:normal;font-weight:normal;font-stretch:normal;font-size:17.2821px;line-height:100%;font-family:Arial;text-align:start;writing-mode:lr-tb;text-anchor:start;white-space:pre;fill:#000000;fill-opacity:1;stroke:none;stroke-width:1px;stroke-linecap:butt;stroke-linejoin:miter;stroke-opacity:1"
       x="129.95854"
       y="200.35127"
       id="text3248"
       transform="matrix(0.999991,0,0,1.000009,-15.054742,29.590363)"><tspan
         id="tspan3250"
         x="129.95854"
         y="200.35127">Miragaia e <tspan
   x="129.95854"
   dy="1em"
   id="tspan82">​</tspan>Marteleira</tspan></text>
    <text
       style="font-style:normal;font-variant:normal;font-weight:normal;font-stretch:normal;font-size:17.2821px;line-height:100%;font-family:Arial;text-align:start;writing-mode:lr-tb;text-anchor:start;white-space:pre;fill:#000000;fill-opacity:1;stroke:none;stroke-width:1px;stroke-linecap:butt;stroke-linejoin:miter;stroke-opacity:1"
       x="-71.47448"
       y="282.45596"
       id="text3252"
       transform="scale(0.999991,1.000009)"><tspan
         id="tspan3254"
         x="-71.47448"
         y="282.45596">Ribamar</tspan></text>
    <text
       style="font-style:normal;font-variant:normal;font-weight:normal;font-stretch:normal;font-size:17.2821px;line-height:100%;font-family:Arial;text-align:start;writing-mode:lr-tb;text-anchor:start;white-space:pre;fill:#000000;fill-opacity:1;stroke:none;stroke-width:1px;stroke-linecap:butt;stroke-linejoin:miter;stroke-opacity:1"
       x="34.098827"
       y="333.29279"
       id="text3256"
       transform="scale(0.999991,1.000009)"><tspan
         id="tspan3258"
         x="34.098827"
         y="333.29279">Vimeiro</tspan></text>
    <text
       style="font-style:normal;font-variant:normal;font-weight:normal;font-stretch:normal;font-size:17.2821px;line-height:100%;font-family:Arial;text-align:start;writing-mode:lr-tb;text-anchor:start;white-space:pre;fill:#000000;fill-opacity:1;stroke:none;stroke-width:1px;stroke-linecap:butt;stroke-linejoin:miter;stroke-opacity:1"
       x="6.8723979"
       y="269.76447"
       id="text3260"
       transform="scale(0.999991,1.000009)"><tspan
         id="tspan3262"
         x="6.8723979"
         y="269.76447">Santa</tspan><tspan
         x="6.8723979"
         y="287.0466"
         id="tspan3264">Bábara</tspan></text>
    <text
       style="font-style:normal;font-variant:normal;font-weight:normal;font-stretch:normal;font-size:17.2821px;line-height:100%;font-family:Arial;text-align:start;writing-mode:lr-tb;text-anchor:start;white-space:pre;fill:#000000;fill-opacity:1;stroke:none;stroke-width:1px;stroke-linecap:butt;stroke-linejoin:miter;stroke-opacity:1"
       x="82.879494"
       y="244.3815"
       id="text3266"
       transform="scale(0.999991,1.000009)" />
    <text
       style="font-style:normal;font-variant:normal;font-weight:normal;font-stretch:normal;font-size:17.2821px;line-height:100%;font-family:Arial;text-align:center;writing-mode:lr-tb;text-anchor:middle;white-space:pre;fill:#000000;fill-opacity:1;stroke:none;stroke-width:1px;stroke-linecap:butt;stroke-linejoin:miter;stroke-opacity:1"
       x="262.90009"
       y="158.87352"
       id="text3270"
       transform="scale(0.999991,1.000009)"><tspan
         id="tspan3272"
         x="262.90009"
         y="158.87352">Moita</tspan><tspan
         x="262.90009"
         y="176.15564"
         id="tspan3274">dos</tspan><tspan
         x="262.90009"
         y="193.43776"
         id="tspan3276">Ferreiros</tspan></text>
    <text
       style="font-style:normal;font-variant:normal;font-weight:normal;font-stretch:normal;font-size:17.2821px;line-height:100%;font-family:Arial;text-align:start;writing-mode:lr-tb;text-anchor:start;white-space:pre;fill:#000000;fill-opacity:1;stroke:none;stroke-width:1px;stroke-linecap:butt;stroke-linejoin:miter;stroke-opacity:1"
       x="152.85992"
       y="-3.917835"
       id="text3278"
       transform="scale(0.999991,1.000009)" />
    <text
       style="font-style:normal;font-variant:normal;font-weight:normal;font-stretch:normal;font-size:17.2821px;line-height:100%;font-family:Arial;text-align:center;writing-mode:lr-tb;text-anchor:middle;white-space:pre;fill:#000000;fill-opacity:1;stroke:none;stroke-width:1px;stroke-linecap:butt;stroke-linejoin:miter;stroke-opacity:1"
       x="274.59888"
       y="18.912659"
       id="text3282"
       transform="scale(0.999991,1.000009)"><tspan
         id="tspan3284"
         x="274.59888"
         y="18.912659">Reguengo</tspan><tspan
         x="274.59888"
         y="36.194778"
         id="tspan3286">Grande</tspan></text>
    <text
       style="font-style:normal;font-variant:normal;font-weight:normal;font-stretch:normal;font-size:17.2821px;line-height:100%;font-family:Arial;text-align:start;writing-mode:lr-tb;text-anchor:start;white-space:pre;fill:#000000;fill-opacity:1;stroke:none;stroke-width:1px;stroke-linecap:butt;stroke-linejoin:miter;stroke-opacity:1"
       x="130.66756"
       y="54.434635"
       id="text3288"
       transform="matrix(0.999991,0,0,1.000009,-51.339864,-40.405419)"><tspan
         id="tspan3290"
         x="130.66756"
         y="54.434635">S. Bartolomeu dos</tspan><tspan
         x="130.66756"
         y="71.716759"
         id="tspan3292">Galegos e Moledo</tspan></text>
    <text
       style="font-size:28px;font-family:Arial, sans-serif;white-space:pre;fill:#333333"
       x="171.047"
       y="252.118"
       id="text105" />
    <text
       style="font-size:28px;font-family:Arial, sans-serif;white-space:pre;fill:#333333"
       x="174.162"
       y="120.778"
       id="text107" />
    <text
       style="font-size:28px;font-family:Arial, sans-serif;white-space:pre;fill:#333333"
       x="172.086"
       y="-4.3319998"
       id="text109" />
  </g>
  <g
     id="layer5"
     transform="translate(99.188522,106.65832)"
     style="display:inline">
    <rect
       style="color:#000000;display:inline;overflow:visible;visibility:visible;opacity:1;fill:none;fill-opacity:1;fill-rule:evenodd;stroke:#000000;stroke-width:2;stroke-linecap:butt;stroke-linejoin:miter;stroke-miterlimit:4;stroke-dasharray:none;stroke-dashoffset:0;stroke-opacity:1;marker:none;marker-start:none;marker-mid:none;marker-end:none;enable-background:accumulate"
       id="rect3295"
       width="474.47311"
       height="486.67609"
       x="-98.188522"
       y="-105.65832"
       ry="1.7834641" />
  </g>
</svg>
